<svg width="170" height="32" viewBox="0 0 170 32" fill="none" xmlns="http://www.w3.org/2000/svg">
<path d="M14.3094 25.8663C14.3094 25.8663 11.8063 31.024 11.807 31.0225H18.6068L17.2753 28.2837L16.1221 25.9086C16.0727 25.8089 16.0057 25.7193 15.9246 25.6411C15.7411 25.4632 15.4869 25.3549 15.2054 25.3549C14.9247 25.3549 14.669 25.4632 14.4863 25.6411C14.4177 25.7071 14.3573 25.7831 14.3101 25.8663H14.3094Z" fill="#E7622B"/>
<path d="M16.8144 25.3635L17.6611 27.1066L19.5644 31.0211H25.3503L23.1389 26.4775L21.2246 22.5365C21.142 22.373 21.0322 22.2252 20.8944 22.0925C20.5916 21.7969 20.1738 21.6169 19.7007 21.6169C19.2387 21.6169 18.815 21.7962 18.507 22.0925C18.3972 22.2037 18.2977 22.3299 18.2152 22.4676C18.2152 22.4676 17.583 23.7725 16.8129 25.3628L16.8144 25.3635Z" fill="#E7622B"/>
<path d="M32.1821 31.1217C32.1261 31.2429 31.9949 31.3354 31.8321 31.3354H26.6511C26.5399 31.3354 26.436 31.273 26.3844 31.1805C26.3763 31.1619 26.3682 31.144 26.3564 31.1217C26.3527 31.1146 26.3483 31.1031 26.3402 31.0924C25.6601 29.7453 20.7135 19.9188 20.7098 19.9188C20.6022 19.7382 20.4674 19.5726 20.3119 19.4292C19.8978 19.0428 19.3208 18.8069 18.6885 18.8069C18.0563 18.8069 17.4786 19.0428 17.0652 19.4292C16.8825 19.5984 16.7307 19.7934 16.6194 20.0106L14.0168 25.1708L11.0281 31.0924L11.0119 31.1217L10.9839 31.1805C10.9404 31.2723 10.8365 31.3354 10.7215 31.3354H5.77126C5.62389 31.3354 5.51262 31.24 5.48462 31.1217C5.46841 31.0665 5.47651 31.0078 5.50451 30.949L9.23306 23.5513L13.8053 14.4905L13.8414 14.4131C13.8215 14.4166 12.5836 15.664 8.79978 14.2919H8.79168C8.42177 14.1743 7.57437 13.7951 7.49479 13.7471C7.25973 13.5965 7.19636 13.3198 7.31205 13.1033C7.33194 13.0703 7.35184 13.0373 7.38352 13.0115C7.68564 12.5886 8.03639 12.1943 8.42177 11.8372C9.95004 10.4242 12.0626 9.5482 14.3985 9.5482C14.5658 9.5482 14.733 9.55178 14.8959 9.56325C14.8082 9.53745 11.6168 9.19907 10.2558 8.81266C7.62964 8.0506 5.27387 6.71503 3.3676 4.95935C2.78694 4.42168 1.01552 2.00789 0.0406394 0.402759C-0.11484 0.156146 0.207909 -0.112689 0.46655 0.049329C2.08618 1.08381 5.16187 2.52262 6.07337 2.94559C6.24064 3.01943 6.37991 3.14417 6.47497 3.29543C6.63045 3.5528 6.88098 3.96501 7.05562 4.21951C7.35405 4.65395 7.75564 5.12854 8.29356 5.59237C8.83073 6.05978 9.49907 6.51215 10.3273 6.89497C10.3354 6.89497 10.3435 6.89855 10.3509 6.90214C10.6493 7.03476 10.9198 6.68492 10.6891 6.4677C10.6058 6.38669 10.53 6.31285 10.4666 6.24689C10.3988 6.17305 10.3354 6.09993 10.2713 6.02609C9.65087 5.30489 9.16896 4.48046 8.85874 3.58578V3.57861C8.79094 3.40225 8.95011 3.21801 9.15348 3.22876C9.33254 3.23952 9.5116 3.2474 9.69066 3.2474C10.037 3.2474 10.3752 3.22518 10.7097 3.18862C10.8571 3.17356 10.992 3.25457 11.0318 3.3872C11.0634 3.50477 11.0995 3.62305 11.143 3.73346C11.2027 3.90623 11.2661 4.07972 11.3339 4.24532C11.6522 5.0038 12.1135 5.71782 12.675 6.34296C14.3661 8.22338 17.2752 8.16817 19.5072 7.22976C22.4679 5.98594 25.2695 4.54283 27.9554 2.83877C28.1978 2.68034 28.4447 2.5262 28.6878 2.36419C29.197 2.03298 29.6863 2.46383 29.7106 2.94559C29.7541 3.91698 29.9133 5.14287 29.3009 5.97806C28.3423 7.28066 26.4515 10.4536 26.2886 10.7519C25.1185 12.8646 24.9954 15.3378 25.9585 17.5308C27.6378 21.3548 31.2706 28.885 32.1784 30.8572C32.2219 30.949 32.2182 31.0415 32.1821 31.1225V31.1217Z" fill="#7A2A1C"/>
<path d="M57.0537 31.3353H53.4829L48.9448 21.5891C48.8844 21.4466 48.7635 21.3861 48.6426 21.3861C48.5217 21.3861 48.4008 21.4466 48.3403 21.5891L43.7821 31.3353H40.21L46.3628 18.2726C46.786 17.3975 47.6538 16.8275 48.6412 16.8275C49.6286 16.8275 50.4965 17.3975 50.9008 18.2726L57.0537 31.3353Z" fill="#7A2A1C"/>
<path d="M58.3259 31.3352V16.8274H61.4924V31.3352H58.3259Z" fill="#7A2A1C"/>
<path d="M86.2789 16.7856L80.1261 29.8482C79.7231 30.7234 78.8351 31.2934 77.8665 31.2934C76.8979 31.2934 76.0112 30.7234 75.5867 29.8482L69.4339 16.7856H73.0047L77.5629 26.5318C77.6233 26.6542 77.7442 26.7362 77.8651 26.7362C77.986 26.7362 78.1069 26.6542 78.1674 26.5318L82.7054 16.7856H86.2762H86.2789Z" fill="#7A2A1C"/>
<path d="M87.5109 31.2934V16.7856H90.6774V31.2934H87.5109Z" fill="#7A2A1C"/>
<path d="M104.173 28.1422L105.244 31.2947H97.6188C94.9575 31.2947 92.7798 29.0698 92.7798 26.3315V21.746C92.7798 19.0077 94.9575 16.7909 97.6188 16.7909H105.244L104.173 19.9433H97.6188C96.6878 19.9433 95.9476 20.7122 95.9476 21.6398V22.5674H102.598V25.6002H95.9476V26.4377C95.9476 27.3733 96.6878 28.1422 97.6188 28.1422H104.173Z" fill="#7A2A1C"/>
<path d="M119.929 16.8277L118.859 19.9734H114.382V31.2938H111.215V19.9734H105.689L106.738 16.8277H119.93H119.929Z" fill="#7A2A1C"/>
<path d="M134.211 16.7011V28.0954C134.211 29.8242 132.819 31.2492 131.085 31.2492C129.834 31.2492 128.704 30.4964 128.22 29.3362L124.488 20.5256C124.428 20.4033 124.307 20.3428 124.186 20.3428C124.045 20.3428 123.884 20.445 123.884 20.6479V31.2935H120.919V19.3655C120.919 17.6569 122.291 16.74 123.985 16.74C125.215 16.74 126.305 16.9847 126.809 18.1032L130.641 26.8519C130.702 26.9944 130.823 27.0563 130.923 27.0563C131.085 27.0563 131.246 26.9339 131.246 26.7309V16.6997H134.211V16.7011Z" fill="#7A2A1C"/>
<path d="M151.863 31.2934H148.292L143.754 21.5471C143.694 21.4046 143.573 21.3441 143.452 21.3441C143.331 21.3441 143.21 21.4046 143.15 21.5471L138.592 31.2934H135.021L141.174 18.2307C141.597 17.3556 142.465 16.7856 143.452 16.7856C144.439 16.7856 145.307 17.3556 145.712 18.2307L151.864 31.2934H151.863Z" fill="#7A2A1C"/>
<path d="M169.999 19.7771V31.2938H167.034V21.4051C167.034 21.2008 166.873 21.0798 166.712 21.0798C166.611 21.0798 166.51 21.1201 166.45 21.2424L163.263 27.3671C162.921 28.0178 162.254 28.4251 161.549 28.4251C160.844 28.4251 160.157 28.0178 159.815 27.3671L156.628 21.2424C156.568 21.1201 156.467 21.0798 156.366 21.0798C156.205 21.0798 156.044 21.2021 156.044 21.4051V31.2938H153.079V19.7771C153.079 18.0484 154.471 16.6436 156.185 16.6436C157.395 16.6436 158.485 17.3345 159.009 18.414L161.248 23.1554C161.309 23.2777 161.43 23.3382 161.551 23.3382C161.651 23.3382 161.772 23.2777 161.833 23.1554L164.072 18.414C164.596 17.3359 165.686 16.6436 166.896 16.6436C168.61 16.6436 170.002 18.047 170.002 19.7771H169.999Z" fill="#7A2A1C"/>
</svg>
