<svg width="1440" height="900" viewBox="0 0 1440 900" fill="none" xmlns="http://www.w3.org/2000/svg">
<g clip-path="url(#clip0_292_37573)">
<rect width="1440" height="900" fill="#6660FF"/>
<path d="M573.255 556.386C577.747 553.515 581.574 549.859 584.692 545.551C586.655 542.838 588.748 540.954 592.387 542.118C595.553 541.773 598.79 541.587 601.965 541.039C608.948 539.833 614.08 535.828 617.619 529.802C621.934 522.453 620.162 510.081 614.092 504.107C607.325 497.448 595.422 497.278 587.998 503.731C584.065 507.15 581.442 511.52 579.036 516.06C576.749 520.375 576.72 520.371 571.973 519.021C567.724 517.812 563.516 516.427 559.059 516.155C548.075 515.485 537.889 523.505 535.452 534.752C533.23 545.003 539.394 555.773 549.85 559.46C558.095 562.367 565.947 561.057 573.255 556.386ZM567.84 557.234C565.525 558.291 563.62 558.005 562.752 555.246C563.619 553.974 565.005 553.735 566.182 553.16C568.072 552.236 569.687 552.905 570.289 554.688C570.877 556.432 568.953 556.726 567.84 557.234ZM573.572 553.634C572.115 553.539 570.982 552.711 570.691 551.218C570.505 550.263 573.572 547.742 574.756 547.883C575.988 548.029 576.943 548.744 577.462 549.904C577.54 550.869 574.719 553.709 573.572 553.634ZM579.305 547.927C578.093 547.76 577.085 547.037 576.781 545.828C576.518 544.782 579.351 541.993 580.369 542.25C581.558 542.55 582.371 543.363 582.585 544.567C582.555 545.837 580.415 548.079 579.305 547.927ZM585.128 541.826C584.517 542.376 583.877 542.167 583.292 541.747C582.122 540.907 581.071 540.007 582.238 538.423C582.533 538.022 582.881 537.66 583.624 536.789C584.302 537.618 584.749 538.112 585.137 538.65C585.894 539.7 586.284 540.786 585.128 541.826ZM586.729 537.605C586.503 537.194 586.336 536.611 586.444 536.185C586.646 535.389 587.411 535.409 588.078 535.452C590.679 535.617 592.428 536.878 593.327 539.537C590.542 540.415 588.235 540.342 586.729 537.605ZM600.974 538.113C600.885 539.352 599.716 539.57 598.722 539.733C596.418 540.112 595.493 538.586 594.519 536.935C596.089 535.623 597.63 536.006 599.083 536.128C600.196 536.221 601.058 536.95 600.974 538.113ZM605.841 537.917C604.281 538.23 602.968 537.618 602.913 535.985C602.863 534.491 604.422 534.37 605.54 534.165C606.847 533.926 607.841 534.459 608.318 535.849C608.137 537.267 607.011 537.682 605.841 537.917ZM610.761 534.397C609.933 534.129 609.198 533.668 609.006 532.798C608.799 531.864 611.183 529.575 612.374 529.616C613.228 529.645 614.017 530.131 614.079 531.115C614.154 532.305 611.936 534.426 610.761 534.397ZM616.678 527.575C616.347 528.146 615.824 528.682 615.067 528.331C614.144 527.901 614.014 527.115 614.501 526.286C615.321 524.89 616.203 523.531 617.491 521.461C618.246 524.313 617.599 525.984 616.678 527.575ZM546.314 555.034C550.434 555.479 550.434 555.479 551.434 558.01C549.521 557.435 547.66 557.003 546.314 555.034ZM542.037 549.649C537.778 546.402 536.249 541.814 536.994 536.499C538.621 524.893 550.698 514.795 563.567 518.575C570.406 520.584 577.292 522.437 584.097 524.573C588.144 525.844 592.197 527.148 596.537 526.979C600.491 526.826 603.818 525.384 606.307 522.267C608.588 519.409 608.782 515.605 606.92 512.728C604.899 509.605 600.594 507.966 597.131 508.975C594.022 509.882 591.871 512.049 590.034 514.538C588.52 516.588 587.197 518.781 585.804 520.919C584.948 522.233 583.883 522.6 582.321 522.138C579.477 521.296 578.979 520.538 580.254 517.803C582.425 513.148 585.012 508.746 588.907 505.287C594.636 500.199 602.574 499.267 609.329 502.839C615.918 506.323 618.44 513.244 615.653 520.199C611.693 530.084 604.746 534.221 592.273 533.934C584.119 534.07 576.131 531.785 568.215 529.143C566.121 528.445 564.078 527.541 561.941 527.032C556.734 525.792 552.129 526.948 548.592 531.152C546.189 534.008 545.628 537.242 547.399 540.661C549.116 543.973 552.062 545.029 555.533 544.648C561.925 543.946 567.269 540.804 571.274 536.047C573.837 533.002 576.19 533.197 579.312 534.113C581.317 534.701 581.952 535.594 580.691 537.337C575.201 544.931 568.86 551.438 559.308 553.678C552.903 555.18 547.118 553.521 542.037 549.649ZM587.313 522.674C587.446 522.227 587.67 521.661 588.029 521.463C588.582 521.158 589.018 521.578 588.841 522.169C588.714 522.594 588.266 522.923 588.017 523.226C587.502 523.262 587.203 523.043 587.313 522.674ZM601.161 515.784C602.906 515.99 604.597 516.434 605.297 518.226C606.048 520.148 604.737 521.402 603.471 522.584C601.34 524.574 598.702 524.996 595.715 525.045C594.306 524.863 592.043 525.448 591.282 523.904C590.3 521.913 592.522 520.652 593.691 519.341C595.649 517.145 597.928 515.403 601.161 515.784ZM593.942 513.559C594.222 512.215 595.206 511.584 596.45 511.466C597.447 511.372 598.06 512.16 598.081 513.053C598.111 514.392 596.894 514.595 595.941 514.753C595.099 514.893 594.279 514.569 593.942 513.559ZM600.976 510.901C603.241 510.98 604.475 512.504 606.411 514.965C603.2 514.448 601.17 514.172 600.266 511.959C600.06 511.453 600.429 510.882 600.976 510.901ZM591.099 518.978C590.626 519.21 590.045 518.897 590.054 518.341C590.071 517.249 590.695 516.452 591.723 516.1C592.223 515.929 592.652 516.226 592.858 516.816C592.805 517.927 591.999 518.537 591.099 518.978ZM571.171 533.273C570.96 533.722 570.572 534.071 570.066 533.668C569.847 533.494 569.658 533.126 569.664 532.85C569.677 532.233 570.161 532.173 570.659 532.221C571.202 532.389 571.407 532.772 571.171 533.273ZM551.778 535.521C554.301 533.577 557.175 532.752 560.312 533.241C562.957 533.654 565.485 534.488 568.207 536.455C564.641 539.937 560.899 541.708 556.791 542.784C555.991 542.994 555.121 543.036 554.289 543.003C552.349 542.925 550.506 542.413 549.845 540.348C549.199 538.329 550.199 536.738 551.778 535.521ZM549.035 534.589C548.758 533.132 549.787 532.427 550.641 531.672C551.198 531.18 551.894 531.062 552.388 531.784C552.737 532.294 552.433 532.784 551.991 533.055C551.057 533.628 550.455 534.883 549.035 534.589ZM554.564 529.832C554.657 528.488 556.233 528.482 557.319 528.326C558.408 528.17 559.465 528.769 559.577 529.786C559.782 531.64 558.021 530.927 557.102 531.338C555.928 531.354 554.458 531.366 554.564 529.832ZM562.965 529.756C563.209 529.638 563.358 529.497 563.476 529.519C564.833 529.776 566.021 530.27 566.171 531.88C566.19 532.08 565.787 532.522 565.62 532.502C563.99 532.313 562.995 531.484 562.965 529.756ZM554.927 557.239C554.498 555.152 556.618 556.403 557.01 555.788C559.135 555.621 560.914 555.827 561.17 557.934C561.317 559.141 559.914 559.226 558.929 559.269C557.22 559.343 555.346 559.282 554.927 557.239Z" fill="#CDF5FD" fill-opacity="0.3"/>
<path d="M119.225 265.693C120.7 257.758 118.502 250.466 114.514 243.766C107.662 232.254 92.9813 229.497 79.7719 239.555C75.9882 242.512 73.267 249.141 74.3017 257.244C75.7763 268.788 85.1354 277.923 97.6144 279.734C100.261 280.118 102.349 281.147 103.619 283.135C105.319 285.797 107.886 286.943 110.418 288.336C111.512 288.938 112.584 289.066 113.667 288.625C115.003 288.081 116.308 287.994 117.758 288.017C120.73 288.065 122.544 286.025 122.618 282.893C122.635 282.196 122.434 281.501 122.796 280.836C125.225 276.377 123.633 272.735 120.423 269.47C119.352 268.381 118.925 267.304 119.225 265.693ZM105.577 283.2C110.684 279.71 115.155 276.291 119.151 272.341C115.948 278.809 110.273 283.403 105.577 283.2ZM94.1979 251.017C96.2668 251.566 97.1227 253.273 98.7097 252.798C101.026 252.106 99.7006 250.24 100.028 248.696C101.93 248.771 102.612 250.276 103.126 251.594C105.435 257.516 107.59 263.499 109.836 269.446C110.351 270.81 110.224 271.967 108.996 272.812C107.55 273.807 106.445 275.685 104.248 274.917C103.459 274.64 102.712 274.198 102.002 273.744C97.4373 270.828 93.588 267.098 90.0296 263.056C89.2086 262.124 88.3334 261.154 88.2798 259.78C92.4562 258.822 92.4562 258.822 91.2293 254.817C92.8743 255.088 94.477 257.383 96.082 255.184C97.2042 253.646 95.54 252.695 94.1979 251.017ZM117.59 269.288C117.83 270.975 117.324 271.681 116.702 272.246C113.667 275.007 110.636 277.777 107.169 280.007C106.696 280.311 106.196 280.597 105.672 280.796C104.983 281.059 104.254 281.087 103.777 280.396C103.292 279.691 103.578 278.99 104.14 278.524C108.231 275.124 112.15 271.455 117.59 269.288ZM120.269 285.653C119.889 286.047 119.44 286.438 118.428 286.103C118.796 284.879 119.579 284.371 120.529 283.99C121.3 284.693 120.706 285.201 120.269 285.653ZM113.417 286.697C115.902 284.18 118.645 281.896 121.273 279.474C119.403 282.669 116.963 285.251 113.417 286.697ZM109.49 285.1C111.528 283.365 113.652 281.719 115.581 279.871C117.476 278.055 119.175 276.034 121.671 273.335C120.583 278.595 115.023 283.894 109.49 285.1ZM114.074 269.247C112.233 270.161 111.549 269.686 110.942 268.047C109.125 263.134 107.291 258.227 105.429 253.332C104.877 251.881 104.376 250.368 103.557 249.07C102.031 246.656 99.8857 246.246 97.3452 247.619C93.9414 249.457 91.1711 252.107 88.6072 254.905C85.7272 258.049 85.8336 259.628 88.4187 263.131C88.8391 263.7 89.2877 264.249 89.7232 264.808C93.0769 268.891 97.0203 272.305 101.42 275.213C102.193 275.723 103.451 276.071 102.884 277.378C102.445 278.39 101.398 278.634 100.356 278.593C94.6374 278.37 89.5289 276.379 85.123 272.821C79.4882 268.271 75.9011 262.497 75.5994 255.048C75.2549 246.543 79.8213 239.493 87.8792 235.983C95.3009 232.751 104.062 234.504 109.791 240.429C115.85 246.695 118.182 254.37 118.166 262.91C118.16 265.905 116.833 267.877 114.074 269.247Z" fill="#CDF5FD" fill-opacity="0.32"/>
<path d="M110.639 208.379C112.996 209.215 114.905 211.214 118.432 211.5C113.512 207.008 114.496 202.051 115.515 196.646C111.213 197.708 111.213 197.708 103.015 194.101C105.603 198.656 104.955 202.751 102.176 206.946C105.43 207.292 108.09 207.474 110.639 208.379ZM105.781 204.967C104.628 203.296 106.846 200.79 105.877 197.754C108.915 198.815 110.956 199.256 113.203 199.123C113.179 201.827 113.157 204.327 113.136 206.785C112.82 206.953 112.546 207.23 112.351 207.182C110.058 206.62 107.031 206.778 105.781 204.967Z" fill="#CDF5FD" fill-opacity="0.32"/>
<path d="M50.6818 265.274C53.5285 265.598 56.1097 265.593 58.4509 266.621C60.8245 267.663 63.142 268.833 65.4839 269.947C61.9623 265.288 62.461 260.291 64.1281 253.944C58.7682 257.833 55.5778 254.517 52.0107 252.47C53.0302 259.717 53.0302 259.717 50.6818 265.274ZM56.9833 257.026C58.3882 257.691 60.5198 256.667 61.2356 258.1C61.8495 259.329 61.3821 261.107 61.3575 262.642C61.3422 263.587 61.8821 264.571 61.036 265.71C59.0003 265.163 56.8778 264.587 54.7522 264.022C53.6588 263.732 53.6368 262.977 53.8128 262.061C54.154 260.285 54.4449 258.499 54.7739 256.619C55.5613 256.033 56.3128 256.709 56.9833 257.026Z" fill="#CDF5FD" fill-opacity="0.32"/>
<path d="M110.169 229.523C112.2 230.016 114.016 230.302 115.716 230.912C117.424 231.524 119.016 232.459 120.66 233.252C118.781 229.722 119.545 226.048 119.971 221.95C116.472 223.804 114.094 221.615 110.887 220.009C112.24 223.675 111.988 226.628 110.169 229.523ZM117.644 229.338C112.603 228.721 112.603 228.721 113.73 224.157C118.006 224.076 118.421 224.537 117.644 229.338Z" fill="#CDF5FD" fill-opacity="0.32"/>
<path d="M525.075 689.553C523.132 688.921 522.326 688.192 522.346 686.083C522.386 681.817 520.122 678.791 516.324 677.123C512.512 675.449 509.114 676.809 506.12 679.327C504.624 680.586 503.261 682.002 501.534 683.635C500.46 681.988 499.6 680.524 498.6 679.163C496.211 675.912 493.179 673.757 488.927 674.022C482.388 674.43 477.507 679.13 477.068 685.705C476.931 687.759 476.594 688.469 474.272 688.729C468.787 689.343 466.281 694.384 468.5 699.48C468.889 700.373 469.73 701.062 469.719 702.367C468.173 703.808 465.897 704.458 464.362 706.166C460.137 710.871 461.753 716.685 467.828 718.352C468.645 718.575 469.502 718.833 470.331 718.803C473.218 718.697 475.249 719.729 476.068 722.663C476.178 723.06 476.46 723.414 476.684 723.775C479.592 728.449 483.677 731.39 489.294 730.926C495.279 730.431 499.523 727.108 501.82 721.47C502.241 720.438 502.276 719.242 503.115 718.387C504.384 718.18 505.209 719.144 506.24 719.524C512.774 721.933 519.64 718.475 521.015 711.647C521.551 708.987 522.667 707.925 525.133 707.158C529.189 705.896 531.491 702.45 531.527 698.554C531.565 694.433 529.249 690.911 525.075 689.553ZM523.938 706.062C523.532 706.178 523.104 706.271 522.686 706.277C520.366 706.306 519.638 707.421 519.564 709.751C519.412 714.595 516.963 717.374 512.5 718.57C509.672 719.327 507.206 718.558 504.857 717.027C503.825 716.355 503.214 715.1 501.951 714.757C500.678 715.645 501.127 716.899 500.999 717.95C500.327 723.441 496.469 727.942 491.369 729.099C485.806 730.362 480.845 728.042 477.788 722.748C477.717 722.625 477.611 722.512 477.577 722.381C476.558 718.334 474.041 716.942 469.862 717.153C466.59 717.319 464.203 715.224 463.714 712.88C463.077 709.826 464.63 707.667 466.905 705.986C468.023 705.159 469.34 704.517 470.662 704.071C472.512 703.446 473.052 702.672 471.522 701.145C470.282 699.908 469.456 698.457 469.35 696.663C469.217 694.406 469.756 692.4 471.754 691.111C473.746 689.827 475.771 690.022 477.737 691.281C478.314 691.651 478.788 692.265 479.882 692.118C480.163 690.529 479.155 689.526 478.901 688.3C477.858 683.251 479.963 678.924 484.629 676.747C489.469 674.488 493.931 675.452 497.089 679.655C498.675 681.765 499.957 684.104 501.3 686.22C502.827 686.108 503.107 685.012 503.655 684.244C504.899 682.501 506.29 680.902 508.051 679.675C511.277 677.426 514.317 677.294 517.14 679.217C520.252 681.339 521.426 684.621 520.451 688.451C520.347 688.857 520.286 689.273 520.209 689.666C521.015 690.891 522.286 690.345 523.323 690.566C527.337 691.422 529.618 693.937 529.835 697.834C530.062 701.899 527.894 704.931 523.938 706.062Z" fill="#CDF5FD" fill-opacity="0.22"/>
<path d="M156 692.441C155.95 690.506 155.061 689.65 153.348 690.131C151.564 690.633 149.811 691.303 148.117 692.06C130.041 700.147 112.603 709.507 95.078 718.691C94.2546 719.123 93.4643 719.62 92.6726 720.109C90.6025 721.388 90.5179 722.93 92.0657 724.701C94.3928 727.363 97.2447 729.408 100.229 731.204C103.078 732.919 104.369 735.178 104.726 738.506C105.196 742.882 106.129 747.231 107.177 751.514C108.114 755.346 109.153 755.835 112.495 753.877C116.505 751.529 120.311 748.825 124.134 746.173C126.151 744.774 128.063 743.722 130.518 745.182C133.839 747.158 135.546 745.57 136.799 742.429C142.658 727.745 149.207 713.332 154.221 698.315C154.883 696.333 155.435 694.315 156 692.441ZM100.003 728.133C98.8577 727.342 97.713 726.529 96.6731 725.608C93.8222 723.082 93.7563 722.248 96.9104 720.549C113.076 711.845 129.352 703.351 146.045 695.686C146.384 695.53 146.889 695.735 148.804 695.898C143.843 700.203 139.93 703.805 135.801 707.14C127.124 714.149 118.341 721.027 109.589 727.943C104.994 731.573 104.975 731.568 100.003 728.133ZM111.325 743.434C111.218 744.738 110.539 745.996 110.024 747.58C105.271 738.484 106.156 733.78 113.544 727.862C118.214 724.122 122.955 720.469 127.664 716.777C128.05 717.122 128.435 717.467 128.82 717.812C125.765 721.213 122.868 724.775 119.617 727.977C115.215 732.313 111.847 737.049 111.325 743.434ZM112.703 750.724C113.032 748.211 113.109 747.082 113.334 745.983C115.097 737.366 115.805 737.118 123.621 742.797C120.937 746.088 117.341 747.931 112.703 750.724ZM149.08 705.557C144.519 716.96 139.802 728.302 135.254 739.711C134.057 742.713 132.449 743.719 129.455 742.05C127.432 740.923 125.283 740.024 123.207 738.987C116.347 735.562 116.272 735.356 121.199 729.899C130.059 720.088 138.968 710.323 147.88 700.559C148.74 699.616 149.762 698.819 151.145 697.556C151.19 700.98 149.999 703.26 149.08 705.557Z" fill="#CDF5FD" fill-opacity="0.25"/>
<path d="M1154.26 72.5375C1338.22 113.197 1446.98 300.149 1397.13 490.141C1347.28 680.132 1157.71 801.147 973.743 760.488C789.781 719.829 681.02 532.877 730.872 342.886C780.724 152.894 970.295 31.8783 1154.26 72.5375Z" stroke="white" stroke-opacity="0.28"/>
<path d="M1105.6 131.056C1277.15 168.971 1378.57 343.308 1332.08 520.481C1285.59 697.655 1108.81 810.504 937.265 772.588C765.717 734.673 664.293 560.336 710.782 383.163C757.271 205.989 934.051 93.1402 1105.6 131.056Z" stroke="white" stroke-opacity="0.09"/>
<path d="M1154.26 170.426C1338.22 211.086 1446.98 398.038 1397.13 588.029C1347.28 778.02 1157.71 899.036 973.743 858.377C789.781 817.718 681.02 630.766 730.872 440.774C780.724 250.783 970.295 129.767 1154.26 170.426Z" stroke="white" stroke-opacity="0.28"/>
<path d="M1332.2 194.832C1332.15 193.877 1331.83 193.227 1330.75 193.129C1327.39 192.824 1323.51 195.907 1322.98 199.358C1322.77 200.757 1322.55 202.165 1322.49 203.575C1322.38 206.001 1320.55 206.972 1318.79 207.78C1317.3 208.461 1316.66 206.775 1315.72 206.032C1315.05 205.508 1314.49 204.859 1313.85 204.3C1302.25 194.165 1288.89 189.664 1273.72 193.186C1256.06 197.285 1243.82 207.748 1239.45 225.894C1236.38 238.636 1238.32 250.937 1244.09 262.651C1248.57 271.763 1255.62 278.079 1265.34 280.983C1283.96 286.542 1301.58 284.102 1317.57 272.956C1330.64 263.845 1335.46 249.944 1331.66 234.478C1329.92 227.398 1327.05 220.807 1322.99 214.739C1322.4 213.865 1321.36 212.959 1322.45 211.743C1323.47 210.608 1324.65 210.654 1325.92 211.277C1326.42 211.527 1326.94 211.763 1327.46 211.982C1332.23 213.987 1333.68 213.679 1337.11 209.939C1339.06 207.814 1338.96 207.334 1336.26 205.984C1335.43 205.57 1334.31 205.617 1333.83 204.357C1334.59 203.782 1335.39 203.225 1336.14 202.601C1337.23 201.69 1337.63 200.471 1337.09 199.175C1336.5 197.769 1335.26 198.168 1334.16 198.462C1333.61 198.607 1333.09 198.817 1332.48 198.488C1331.65 197.364 1332.27 196.066 1332.2 194.832ZM1327.95 196.121C1328.27 195.228 1329.08 194.815 1329.99 195.068C1330.89 195.316 1330.71 196.147 1330.62 196.829C1330.54 197.386 1330.41 197.943 1330.24 198.478C1329.92 199.471 1330.06 201.117 1328.45 200.786C1327.23 200.534 1327.91 199.108 1327.69 198.102C1327.76 197.506 1327.72 196.764 1327.95 196.121ZM1324.75 197.764C1326.48 199.627 1326.49 200.026 1324.67 203.925C1324.11 201.294 1324.25 199.596 1324.75 197.764ZM1325.19 242.324C1325.58 251.612 1322.26 259.468 1315.12 265.192C1300.78 276.703 1284.6 279.409 1267.16 273.6C1259.85 271.164 1254.58 266.133 1251.06 259.269C1247.56 252.459 1245.77 245.249 1245.88 237.582C1245.54 214.862 1262.21 200.747 1281.9 199.518C1293.08 198.82 1302.63 203.276 1310.66 211.005C1311.46 211.774 1312.39 212.554 1311.24 213.846C1309.77 215.501 1308.23 216.065 1306.94 215.129C1306.02 214.466 1305.24 213.626 1304.36 212.912C1292.53 203.313 1276.94 202.769 1264.59 211.699C1254.4 219.06 1251.02 229.456 1252.04 241.543C1252.43 246.221 1253.8 250.697 1255.86 254.965C1259.18 261.877 1264.47 266.537 1271.78 268.697C1284.99 272.6 1297.41 270.592 1308.52 262.533C1317.5 256.015 1320.9 246.994 1318.39 235.985C1317.28 231.104 1315.33 226.577 1312.73 222.303C1311.33 220.004 1311.61 219.234 1313.72 217.832C1314.88 217.062 1315.8 217.069 1316.63 218.22C1316.88 218.564 1317.14 218.898 1317.37 219.257C1321.8 226.327 1324.85 233.857 1325.19 242.324ZM1281.85 244.651C1285.23 246.207 1290.21 244.912 1292.18 241.994C1293.32 240.32 1293.24 238.538 1292.78 236.696C1292.58 235.897 1292.01 235.067 1292.6 234.272C1293.27 233.365 1294.06 232.404 1295.27 232.368C1296.51 232.33 1296.7 233.575 1297.09 234.428C1299.93 240.505 1297.9 246.044 1291.82 248.847C1289.6 249.875 1287.25 250.297 1285.27 250.23C1277.01 250.234 1272.11 244.994 1272.62 237.191C1273.08 229.979 1278.95 224.959 1286.15 225.669C1287.12 225.764 1288.1 226.037 1289.01 226.371C1290.05 226.746 1291.3 227.045 1291.42 228.423C1291.5 229.405 1289.23 231.057 1287.94 231.018C1287.39 231.001 1286.84 230.722 1286.29 230.671C1282.31 230.305 1279.05 232.461 1278.21 235.973C1277.33 239.625 1278.86 243.27 1281.85 244.651ZM1290.56 225.38C1281.2 221.172 1271.23 227.657 1271.27 237.918C1271.29 244.76 1274.58 249.59 1280.31 251.221C1286.95 253.109 1294.92 250.561 1298.14 245.468C1300.58 241.61 1299.99 237.662 1298.47 233.655C1297.99 232.393 1296.08 230.645 1298.43 229.779C1300.41 229.05 1300.69 231.462 1301.27 232.707C1305.53 241.797 1302.4 249.698 1293.09 253.388C1289.22 254.925 1285.2 255.504 1281.02 254.798C1274.24 253.654 1270.22 249.618 1268.54 243.079C1265.68 231.896 1271.81 222.435 1282.91 220.994C1287.17 220.44 1291.03 221.68 1294.47 224.207C1295.05 224.627 1295.62 225.188 1295.03 225.969C1294.59 226.541 1293.98 227.031 1293.21 226.719C1292.3 226.349 1291.46 225.785 1290.56 225.38ZM1260.82 230.701C1258.74 238.603 1259.95 246.192 1264.23 253.176C1268.64 260.366 1275.77 262.509 1283.54 262.759C1290.18 262.973 1296.46 261.212 1302.04 257.453C1309.85 252.205 1312.74 244.341 1310.27 235.247C1309.41 232.076 1308.08 229.1 1306.35 226.327C1304.98 224.133 1306.63 223.325 1307.96 222.274C1309.46 221.078 1310.5 221.61 1311.41 223.066C1315.96 230.377 1318.58 238.2 1317.16 246.897C1316.18 252.922 1312.75 257.575 1307.95 261.197C1300.79 266.599 1292.62 268.958 1284.16 268.938C1281.3 268.847 1278.9 268.886 1276.51 268.411C1264.17 265.954 1256.51 259.059 1253.83 243.22C1253.13 239.03 1253.18 234.72 1254.08 230.525C1256.58 218.876 1263.95 211.583 1275.1 208.192C1286.18 204.819 1296.07 207.62 1304.69 215.16C1305.46 215.83 1306.78 216.447 1305.93 217.897C1305.08 219.339 1302.37 220.568 1301.24 219.907C1300.03 219.197 1298.97 218.216 1297.79 217.434C1283.85 208.181 1264.98 214.89 1260.82 230.701ZM1330.65 211.619C1329.33 211.217 1327.96 210.828 1326.88 209.884C1326.72 209.748 1326.65 209.36 1326.72 209.153C1326.93 208.565 1327.49 208.248 1328.03 208.291C1329.99 208.444 1331.79 209.101 1333.74 210.217C1332.89 211.892 1331.77 211.957 1330.65 211.619ZM1336.73 208.758C1334.03 208.733 1332.43 207.962 1330.12 206.576C1333.06 206.13 1334.73 206.669 1336.73 208.758ZM1335.61 200.52C1332.92 203.311 1329.41 205.019 1326.26 207.202C1323.01 209.459 1319.67 211.583 1316.45 213.894C1313.24 216.205 1310.15 218.69 1306.99 221.073C1303.83 223.456 1300.64 225.803 1297.47 228.174C1294.31 230.533 1291.28 233.042 1288.18 235.536C1291.45 229.372 1329.37 201.432 1335.61 200.52Z" fill="#CDF5FD" fill-opacity="0.43"/>
<path d="M691.299 160.204C689.78 162.369 690.096 164.184 691.879 165.902C693.598 167.559 695.578 167.044 697.479 166.526C705.807 164.257 712.626 159.593 718.106 153.009C719.897 150.856 721.828 148.681 722.559 145.844C723.263 143.114 722.147 141.734 719.333 141.873C717.038 141.986 714.913 142.83 712.814 143.69C710.494 144.641 708.194 145.642 705.909 146.612C704.751 144.81 705.165 143.033 704.813 141.407C704.026 137.77 705.371 135.451 708.464 133.266C726.406 120.591 738.006 103.072 746.091 82.9789C747.096 80.4832 747.883 77.8981 748.089 75.185C748.48 70.0166 746.236 67.8163 741.012 68.3136C737.569 68.6414 734.371 69.8769 731.409 71.5541C716.644 79.9145 703.005 89.6451 692.916 103.639C690.008 107.672 687.506 111.937 685.242 116.35C684.593 117.615 684.129 119.038 682.365 119.082C679.997 119.142 677.608 119.635 674.763 118.804C676.143 114.455 677.762 110.647 678.158 106.53C678.306 104.982 678.576 103.248 677.142 102.197C675.5 100.994 673.898 102.003 672.414 102.844C671.804 103.189 671.278 103.683 670.717 104.113C666.833 107.081 663.768 110.822 661.262 114.937C658.294 119.81 656.324 125.123 655.811 130.882C655.629 132.914 656.351 134.391 658.246 135.393C660.263 136.459 661.816 135.763 663.22 134.396C664.638 133.015 665.991 131.557 667.279 130.053C668.526 128.597 669.85 128.244 671.215 129.706C674.651 133.39 679.66 135.477 681.931 140.371C682.314 141.196 683.227 141.945 684.075 142.354C688.523 144.497 691.436 148.501 695.248 151.406C696.803 152.591 696.769 153.921 695.428 155.36C693.981 156.912 692.512 158.474 691.299 160.204ZM692.972 165.002C692.113 163.768 691.46 162.684 692.447 161.413C693.006 160.694 693.733 160.657 694.122 161.433C694.694 162.577 696.573 163.408 695.491 164.971C694.903 165.821 693.723 165.464 692.972 165.002ZM718.106 149.973C715.172 149.015 715.093 148.918 714.414 145.114C716.11 146.334 717.26 147.919 718.106 149.973ZM703.343 150.477C705.384 148.923 707.589 147.658 709.917 146.603C711.077 146.077 712.116 146.15 712.836 147.383C713.121 147.872 713.429 148.349 713.76 148.808C716.511 152.624 716.513 152.622 712.691 156.553C712.253 156.904 711.083 157.935 709.818 158.835C707.063 160.795 706.536 160.724 704.09 158.247C703.495 157.644 702.922 157.005 702.437 156.314C700.332 153.318 700.461 152.67 703.343 150.477ZM698.394 157.613C699.533 159.349 700.704 161.065 701.862 162.788C698.571 164.831 698.558 164.841 696.728 162.393C696.06 161.499 695.29 160.617 694.887 159.603C694.311 158.153 695.314 157.182 696.461 156.56C697.459 156.02 697.922 156.895 698.394 157.613ZM728.003 76.8043C728.121 76.8799 728.237 76.9719 728.324 77.0801C731.896 81.5354 736.24 85.1436 740.817 88.5011C741.178 88.7661 741.231 89.2011 740.938 89.8781C739.684 90.2256 738.677 89.4169 737.714 88.6956C734.077 85.9738 730.679 82.9777 727.596 79.6363C727.214 79.223 726.865 78.77 726.564 78.2951C726.256 77.8098 726.081 77.2155 726.495 76.7418C726.956 76.2145 727.512 76.4886 728.003 76.8043ZM721.509 79.2115C723.167 78.0457 724.553 78.0502 725.857 79.7847C729.121 84.1284 733.188 87.6001 737.78 90.4702C739.675 91.655 740.017 93.0333 738.898 95.0795C733.66 104.657 727.855 113.819 720.145 121.644C719.847 121.946 719.54 122.24 719.224 122.521C715.635 125.715 715.341 125.738 711.256 123.063C710.666 122.676 710.077 122.274 709.551 121.808C707.753 120.217 705.984 118.593 704.204 116.982C700.921 114.282 698.016 111.219 695.391 107.865C693.916 105.981 693.952 104.51 695.429 102.619C702.74 93.2603 711.887 85.9797 721.509 79.2115ZM713.138 127.481C712.248 127.965 711.42 127.325 710.649 126.763C710.094 126.359 710.175 125.676 710.76 125.403C711.821 124.907 712.593 125.709 713.34 126.29C713.686 126.559 713.681 127.016 713.138 127.481ZM708.602 124.288C708.041 124.954 707.363 124.727 706.738 124.39C706.047 124.018 705.635 123.408 706.236 122.703C706.84 121.995 707.529 122.466 708.116 122.846C708.615 123.17 708.96 123.607 708.602 124.288ZM704.536 121.469C703.923 122.154 703.319 121.934 702.76 121.41C702.228 120.91 701.794 120.293 702.363 119.606C702.915 118.94 703.591 119.126 704.165 119.658C704.71 120.162 705.067 120.731 704.536 121.469ZM700.87 118.349C699.967 118.977 699.33 118.405 698.728 117.784C698.19 117.23 697.914 116.53 698.561 115.959C699.409 115.21 700.097 115.862 700.705 116.465C701.265 117.021 701.406 117.642 700.87 118.349ZM695.321 114.453C694.317 113.616 693.428 112.638 694.4 111.233C694.748 110.729 695.266 110.646 695.861 111.004C697.153 111.784 697.751 113.19 697.125 114.122C696.62 114.763 695.961 114.987 695.321 114.453ZM692.041 107.895C692.359 107.557 692.803 107.461 693.158 107.753C693.843 108.314 693.687 108.96 693.189 109.581C692.773 110.003 692.246 110.365 691.79 109.787C691.298 109.162 691.512 108.459 692.041 107.895ZM688.679 113.028C689.618 111.212 690.632 111.333 691.822 112.829C696.611 118.849 702.311 123.808 708.965 127.701C710.851 128.804 710.877 129.599 709.192 130.868C706.719 132.731 704.082 134.375 701.559 136.173C699.84 137.398 698.176 137.15 696.377 136.368C693.729 135.216 691.675 133.291 689.562 131.429C681.641 123.937 683.297 124.492 686.737 116.783C687.31 115.498 688.031 114.279 688.679 113.028ZM675.538 110.49C672.827 110.23 671.291 109.333 669.725 107.097C672.354 107.422 673.942 108.227 675.538 110.49ZM662.324 116.106C662.792 115.237 663.271 114.347 663.897 113.593C668.561 107.973 667.337 108.783 673.386 111.888C674.669 112.546 674.947 113.41 674.538 114.641C673.552 117.61 672.186 120.402 670.537 123.056C669.725 124.363 668.638 124.514 667.247 123.93C665.786 123.318 664.516 122.451 663.295 121.48C660.885 119.455 660.783 118.966 662.324 116.106ZM657.513 132.444C657.354 131.911 657.326 131.287 657.757 130.85C658.195 130.406 658.759 130.454 659.287 130.746C659.655 130.95 660.015 131.168 660.369 131.394C660.947 131.764 661.518 132.147 662.505 132.797C659.624 134.558 658.083 134.358 657.513 132.444ZM663.166 131.052C661.727 130.564 660.432 129.649 659.824 129.323C658.015 128.081 657.907 127.042 658.278 125.862C658.627 124.754 659.168 124.109 660.412 124.838C661.863 125.689 663.325 126.52 664.797 127.334C665.538 127.744 666.506 128.107 666.019 129.156C665.487 130.302 664.67 131.563 663.166 131.052ZM678.946 134.353C676.77 132.383 674.581 130.427 672.424 128.437C671.493 127.578 670.285 126.646 671.115 125.216C672.13 123.467 672.584 120.998 675.216 120.835C677.589 120.689 679.978 120.788 683.025 120.777C681.528 125.394 680.155 129.518 679.95 133.892C679.616 134.046 679.281 134.199 678.946 134.353ZM682.026 137.082C681.209 133.875 681.416 130.692 682.88 127.288C685.761 128.882 686.926 131.859 689.32 133.504C691.629 135.092 693.909 136.723 696.734 138.709C693.893 140.384 691.406 141.319 688.714 141.606C685.346 141.965 682.853 140.326 682.026 137.082ZM696.21 149.931C694.02 148.024 691.557 146.36 689.66 143.591C694.008 141.619 698.222 140.147 702.312 137.582C703.708 141.027 703.913 144.286 703.649 147.374C703.377 150.558 698.63 152.039 696.21 149.931Z" fill="#CDF5FD" fill-opacity="0.33"/>
<path d="M709.007 110.959C714.31 115.836 721.009 116.025 725.25 111.416C730.475 105.739 730.51 97.169 725.328 92.3578C719.99 87.4028 712.834 87.8167 707.687 93.378C702.726 98.7397 703.245 105.659 709.007 110.959ZM711.616 92.0074C718.497 87.9305 726.896 92.1719 727.612 100.149C728.052 105.051 725.984 108.922 722.225 111.926C720.459 113.338 718.359 113.543 716.2 113.087C713.943 112.61 711.967 111.572 710.459 110.093C703.785 104.147 704.357 96.3081 711.616 92.0074Z" fill="#CDF5FD" fill-opacity="0.33"/>
<path d="M711.336 108.508C715.154 111.948 720.034 112.035 723.107 108.716C726.84 104.684 726.831 98.4379 723.087 94.9505C719.221 91.3491 714.044 91.6855 710.34 95.7791C706.763 99.7309 707.156 104.74 711.336 108.508ZM722.094 95.8528C725.211 98.6861 725.216 103.777 722.106 107.32C719.38 110.423 715.943 110.43 712.477 107.34C708.789 104.052 708.375 99.8032 711.425 96.5626C714.373 93.4306 719.085 93.1173 722.094 95.8528Z" fill="#CDF5FD" fill-opacity="0.33"/>
<path d="M771.76 805.665C772.355 803.389 772.474 800.993 772.894 798.666C773.312 796.349 773.522 793.927 774.376 791.77C776.137 787.317 778.842 786.876 781.77 790.707C784.84 794.723 787.137 799.347 790.33 803.249C793.833 807.53 798.992 808.593 803.061 806.563C807.906 804.145 808.699 799.604 807.417 795.251C802.935 780.032 795.73 766.213 782.328 757.009C770.742 749.053 758.768 753.31 753.621 766.488C750.754 773.827 749.926 781.569 750.012 789.415C749.96 795.181 749.992 800.942 752.08 806.445C753.893 811.224 756.929 814.675 762.387 814.81C766.84 814.92 770.227 811.532 771.76 805.665ZM755.428 804.969C753.802 799.744 753.973 794.281 753.882 788.665C754.277 782.124 754.256 775.335 756.606 768.845C761.141 756.317 770.524 752.807 781.191 760.547C793.137 769.215 799.511 781.952 804.089 795.62C805.152 798.793 804.306 801.765 801.18 803.474C797.888 805.274 795.094 803.701 793.173 801.174C790.321 797.419 787.972 793.285 785.317 789.375C783.382 786.525 781.213 783.766 777.204 784.411C773.338 785.032 771.5 788.006 770.66 791.375C769.599 795.624 769.054 800.004 768.3 804.329C767.737 807.553 766.468 810.254 762.787 810.616C758.685 811.019 756.501 808.419 755.428 804.969Z" fill="#CDF5FD" fill-opacity="0.46"/>
<path d="M771.314 778.061C775.651 777.972 779.254 774.302 779.201 770.317C779.149 766.496 775.993 762.973 772.519 762.86C768.59 762.732 764.581 767.432 765.052 771.833C765.462 775.663 767.74 777.749 771.314 778.061ZM769.196 770.496C769.35 768.642 770.328 767.338 772.194 767.143C774.184 766.934 775.379 768.344 775.558 770.046C775.809 772.437 774.23 773.591 772.115 773.809C769.917 773.612 769.033 772.464 769.196 770.496Z" fill="#CDF5FD" fill-opacity="0.46"/>
<path d="M267.511 175.909C273.667 178.184 279.059 180.32 280.82 187.292C280.925 187.71 281.321 188.071 281.625 188.42C283.854 190.983 285.969 190.889 286.475 187.673C287.599 180.528 292.488 179.015 298.369 178.375C299.525 178.249 300.682 178.077 301.817 177.828C310.943 175.825 319.949 173.488 327.798 168.083C335.76 162.6 339.55 154.912 338.936 145.368C337.978 130.512 327.119 118.764 312.503 115.999C298.779 113.402 285.628 116.261 272.615 120.076C257.606 124.476 250.947 133.717 251.004 148.653C250.851 161.788 255.55 171.491 267.511 175.909ZM273.092 122.395C284.324 119.029 295.746 116.991 307.56 117.77C320.761 118.64 330.896 126.106 334.982 138.144C339.022 150.047 335.367 160.501 324.709 167.178C316.643 172.231 307.496 174.163 298.342 176.023C297.886 176.116 297.421 176.181 296.956 176.214C290.675 176.649 285.477 178.538 284.443 186.521C280.185 183.68 281.221 178.522 277.709 176.777C274.622 175.243 270.999 174.828 267.792 173.488C256.764 168.882 253.215 159.62 253.264 148.619C253.324 134.865 259.907 126.346 273.092 122.395Z" fill="#CDF5FD" fill-opacity="0.23"/>
<path d="M267.681 146.201C272.338 143.087 278.185 143.955 282.228 141.492C286.706 138.764 291.257 138.112 295.804 137.559C302.837 136.705 308.705 133.027 315.216 131.031C310.971 130.125 307.364 131.731 303.678 132.935C301.701 133.58 299.791 134.788 297.791 134.937C291.769 135.385 285.551 134.731 280.825 139.785C279.664 141.026 278.118 140.229 276.963 139.527C274.085 137.777 272.216 138.709 270.736 141.433C269.339 144.006 267.472 144.454 265.044 142.606C264.109 141.894 263.241 140.284 261.382 141.833C262.869 144.364 265.893 147.396 267.681 146.201Z" fill="#CDF5FD" fill-opacity="0.23"/>
<path d="M310.088 143.002C308.511 142.332 306.747 143.103 305.566 144.273C298.632 151.142 289.587 152.457 280.596 153.965C276.805 154.6 273.023 155.291 269.237 155.956C278.12 157.48 291.596 155.281 298.636 151.827C304.315 149.04 309.099 144.776 316.389 145.674C319.849 146.1 322.741 141.822 327.385 140.854C324.205 139.141 322.224 139.777 320.49 141.022C317.293 143.317 314.093 144.702 310.088 143.002Z" fill="#CDF5FD" fill-opacity="0.23"/>
<path d="M294.235 161.614C288.895 161.074 280.248 164.494 276.926 167.779C277.715 167.817 278.444 168.045 279.034 167.851C285.645 165.677 292.163 163.194 299.367 163.899C300.636 164.024 302.108 163.344 303.304 162.699C307.216 160.59 311.42 159.275 315.571 157.781C317.156 157.21 319.364 157.201 319.984 153.938C314.56 155.481 309.561 156.929 304.883 159.302C301.498 161.018 298.192 162.014 294.235 161.614Z" fill="#CDF5FD" fill-opacity="0.23"/>
<path d="M1343.05 811.169C1340.51 810.112 1337.91 809.97 1335.28 810.837C1333.23 811.514 1331.63 812.658 1331.44 815.02C1331.28 817.032 1332.81 819.137 1335.04 819.97C1335.76 820.238 1336.56 820.336 1337.33 820.423C1339.36 820.656 1341.09 821.362 1341.11 823.718C1341.13 826.056 1339.63 827.488 1337.47 827.969C1335.82 828.337 1334.07 828.417 1332.37 828.393C1327.68 828.326 1324 830.461 1320.98 833.203C1320.38 833.843 1320.04 834.17 1319.74 834.528C1316.92 837.895 1316.35 841.171 1318.3 842.853C1320.62 844.869 1323.62 844.03 1326.5 840.293C1328.76 837.367 1331.59 835.809 1335.26 835.701C1338.24 835.615 1341.18 835.292 1343.98 834.231C1346.85 833.146 1349.19 831.465 1350.35 828.461C1352.77 822.221 1349.21 813.734 1343.05 811.169ZM1341.84 833.169C1340.19 833.608 1338.45 834.003 1336.77 833.967C1331.87 833.862 1327.95 835.548 1325.05 839.553C1324.51 840.298 1323.8 840.956 1323.06 841.515C1321.96 842.349 1320.75 842.437 1319.65 841.487C1318.64 840.626 1318.82 839.511 1319.25 838.477C1319.85 837.01 1320.98 835.896 1322.05 834.767C1324.96 831.634 1328.45 829.882 1332.83 830.09C1334.86 830.187 1336.9 830.068 1338.83 829.321C1341.59 828.25 1343.17 825.82 1342.85 823.173C1342.55 820.697 1341.28 819.546 1338.09 818.869C1334.29 818.064 1332.99 817.082 1333.1 815.1C1333.21 813.197 1335.91 811.789 1339.15 811.948C1344.22 812.198 1348.65 816.754 1349.38 822.473C1350.05 827.785 1347.34 831.703 1341.84 833.169Z" fill="#CDF5FD" fill-opacity="0.32"/>
<path d="M1315.71 853.796C1317.63 852.087 1317.75 848.185 1315.94 846.205C1314.02 844.102 1309.84 844.001 1307.99 846.013C1306.34 847.799 1306.61 851.226 1308.55 853.168C1310.47 855.1 1313.91 855.401 1315.71 853.796ZM1309.21 847.445C1310.35 846.022 1312.6 845.875 1314.17 847.122C1315.74 848.373 1316.01 850.506 1314.77 852.015C1313.63 853.406 1311.91 853.492 1310.29 852.239C1308.54 850.884 1308.08 848.852 1309.21 847.445Z" fill="#CDF5FD" fill-opacity="0.32"/>
<path d="M932.819 37.634C915.085 40.5942 897.359 43.6025 879.602 46.4189C876.597 46.8956 874.291 48.0336 872.366 50.3034C870.811 52.1364 869.125 53.8618 867.442 55.5808C866.089 56.9631 864.741 57.2342 862.993 55.9043C855.592 50.2732 847.569 45.4161 841.189 38.377C841.221 40.4555 842.452 41.8826 843.797 43.0009C853.356 50.9479 862.686 59.2015 875.012 62.9349C879.069 64.1637 882.914 64.6307 887.07 63.9612C899.235 62.0019 911.315 59.6045 923.404 57.2417C927.711 56.3998 932.039 55.6523 936.323 54.7074C939.751 53.9514 940.843 52.3538 940.289 48.9054C939.864 46.2565 939.278 43.6137 938.509 41.0446C937.514 37.7191 936.202 37.0693 932.819 37.634ZM884.879 47.1685C898.962 44.8535 913.048 42.5466 927.132 40.2374C927.969 40.1002 928.808 39.977 929.643 39.8282C930.739 39.6328 931.595 39.7826 931.866 41.0881C932.172 42.5647 931.412 43.167 930.113 43.395C929.417 43.5171 928.723 43.6502 928.028 43.7797C915.387 46.1393 902.721 48.3778 890.119 50.9311C886.228 51.7195 882.926 51.4331 879.42 48.1424C881.595 47.7533 883.233 47.439 884.879 47.1685ZM879.488 62.4477C876.711 62.1248 873.804 61.4548 871.662 59.5546C870.409 58.4421 870.145 56.3053 870.863 54.7786C871.886 52.6067 873.799 50.973 875.739 49.568C876.929 48.7058 881.473 50.9442 881.808 52.3931C882.056 53.4677 881.119 53.7702 880.483 54.2952C878.084 56.275 878.135 56.6539 880.9 57.7585C881.803 58.1193 882.856 58.1221 883.935 59.2625C882.513 60.7019 881.497 62.6813 879.488 62.4477ZM881.853 55.9923C883.139 53.9974 884.89 53.2912 886.866 52.925C900.889 50.3262 914.909 47.7111 928.936 45.1299C930.012 44.9318 931.251 44.3596 932.192 45.167C933.068 45.9181 933.282 47.1555 933.113 48.2982C932.955 49.3583 931.94 49.3698 931.129 49.5208C916.831 52.1853 902.531 54.8421 888.231 57.4977C885.923 57.9263 883.864 57.3993 881.853 55.9923ZM932.428 53.8981C916.715 56.9855 901.06 60.3925 885.193 62.6459C884.766 62.7066 884.342 62.6698 883.992 62.189C884.849 60.217 886.482 59.3652 888.551 58.9815C902.626 56.3732 916.695 53.7269 930.765 51.0951C931.183 51.017 931.604 50.9597 932.024 50.8965C933.086 50.737 934.047 50.7654 934.28 52.1268C934.535 53.6227 933.345 53.718 932.428 53.8981ZM938.901 50.9323C938.912 51.319 938.653 51.7134 938.582 51.9233C937.691 53.107 936.27 52.96 935.878 51.6604C934.824 48.1662 933.833 44.6443 933.429 40.9981C933.337 40.1682 933.267 39.25 934.387 38.9753C935.301 38.7511 936.165 38.9807 936.504 39.8774C937.849 43.4381 938.79 47.1022 938.901 50.9323Z" fill="#CDF5FD" fill-opacity="0.25"/>
</g>
<defs>
<clipPath id="clip0_292_37573">
<rect width="1440" height="900" fill="white"/>
</clipPath>
</defs>
</svg>
