<svg width="181" height="181" viewBox="0 0 181 181" fill="none" xmlns="http://www.w3.org/2000/svg">
<path d="M80.36 151.236C80.36 151.236 66.3027 181.009 66.3068 181.001H104.494L97.0161 165.191L90.5399 151.48C90.2627 150.904 89.8861 150.387 89.4309 149.935C88.4005 148.908 86.9728 148.283 85.392 148.283C83.8154 148.283 82.3795 148.908 81.3532 149.935C80.9683 150.316 80.629 150.755 80.3642 151.236H80.36Z" fill="#E7622B"/>
<path d="M94.4277 148.325L99.1824 158.388L109.871 180.985H142.364L129.946 154.756L119.195 132.006C118.731 131.062 118.115 130.209 117.341 129.443C115.64 127.737 113.294 126.697 110.637 126.697C108.042 126.697 105.663 127.732 103.933 129.443C103.316 130.085 102.758 130.813 102.294 131.608C102.294 131.608 98.7438 139.141 94.4194 148.321L94.4277 148.325Z" fill="#E7622B"/>
<path d="M180.731 179.765C180.416 180.464 179.68 180.999 178.765 180.999H149.67C149.045 180.999 148.461 180.638 148.172 180.104C148.126 179.997 148.081 179.893 148.014 179.765C147.994 179.723 147.969 179.657 147.923 179.595C144.104 171.814 116.324 115.054 116.304 115.054C115.699 114.011 114.942 113.054 114.069 112.226C111.743 109.994 108.503 108.632 104.953 108.632C101.402 108.632 98.1578 109.994 95.8363 112.226C94.81 113.203 93.9576 114.33 93.3327 115.584L78.7167 145.391L61.9324 179.595L61.8413 179.765L61.6841 180.104C61.4399 180.634 60.8564 180.999 60.2109 180.999H32.4107C31.5831 180.999 30.9582 180.448 30.801 179.765C30.7099 179.446 30.7554 179.106 30.9127 178.767L51.8518 136.036L77.5291 83.6993L77.7319 83.2521C77.6201 83.2728 70.668 90.478 49.4185 82.5523H49.373C47.2957 81.8732 42.5368 79.6826 42.0899 79.4052C40.7698 78.5356 40.4139 76.9372 41.0636 75.6866C41.1753 75.4962 41.2871 75.3057 41.465 75.1566C43.1616 72.7135 45.1314 70.436 47.2957 68.3738C55.8782 60.212 67.7423 55.1518 80.8603 55.1518C81.7997 55.1518 82.739 55.1725 83.6536 55.2388C83.1611 55.0897 65.2387 53.1352 57.5956 50.9032C42.8472 46.5014 29.6174 38.7869 18.912 28.6458C15.6511 25.5401 5.70301 11.5976 0.228226 2.32606C-0.644926 0.901578 1.16759 -0.651268 2.62009 0.284581C11.7158 6.25993 28.9884 14.5708 34.1073 17.0139C35.0467 17.4404 35.8288 18.1609 36.3627 19.0347C37.2358 20.5213 38.6428 22.9023 39.6235 24.3723C41.2995 26.8817 43.5548 29.623 46.5756 32.3022C49.5924 35.0021 53.3457 37.615 57.997 39.8263C58.0425 39.8263 58.088 39.847 58.1294 39.8677C59.8053 40.6337 61.324 38.613 60.0288 37.3583C59.5612 36.8903 59.135 36.4638 58.7791 36.0829C58.3984 35.6563 58.0425 35.234 57.6825 34.8075C54.1981 30.6417 51.4918 25.8796 49.7496 20.7118V20.6703C49.3689 19.6517 50.2627 18.5875 51.4049 18.6496C52.4104 18.7117 53.416 18.7572 54.4216 18.7572C56.3665 18.7572 58.2659 18.6289 60.1447 18.4177C60.9723 18.3307 61.7296 18.7986 61.953 19.5647C62.131 20.2438 62.3338 20.9271 62.5779 21.5648C62.9131 22.5627 63.269 23.5648 63.6497 24.5214C65.4374 28.9025 68.0279 33.0269 71.1811 36.6377C80.6782 47.4994 97.0157 47.1805 109.55 41.7601C126.177 34.5756 141.911 26.2399 156.994 16.3969C158.356 15.4818 159.742 14.5915 161.108 13.6556C163.967 11.7425 166.715 14.2312 166.851 17.0139C167.095 22.6249 167.989 29.7058 164.55 34.53C159.167 42.0541 148.548 60.3818 147.634 62.1044C141.062 74.3077 140.371 88.5939 145.78 101.261C155.211 123.349 175.612 166.845 180.71 178.237C180.954 178.767 180.933 179.301 180.731 179.769V179.765Z" fill="#7A2A1C"/>
</svg>
