<svg width="259" height="323" viewBox="0 0 259 323" fill="none" xmlns="http://www.w3.org/2000/svg">
<ellipse cx="137.5" cy="310" rx="93.5" ry="13" fill="#D9D9D9"/>
<path d="M23.5271 172.544C39.2299 180.089 45.2109 175.431 46.6918 173.785C47.7401 172.62 48.3294 171.139 48.2654 169.823C48.0976 166.415 46.7624 158.373 42.9046 152.338C39.9891 147.778 36.16 145.242 31.5253 144.799C26.2307 144.293 23.302 148.949 22.8209 158.636C22.5494 164.091 23.1541 169.722 23.5271 172.542V172.544Z" fill="#000072"/>
<path d="M49.3533 168.797C48.6404 160.951 43.4363 135.735 28.7024 133.423C28.4971 133.392 28.2941 133.367 28.0999 133.35C14.1914 132.26 21.8033 172.341 21.8033 172.341C35.9082 181.319 43.8623 180.124 47.3118 175.974C48.9648 173.995 49.5828 171.341 49.3555 168.799L49.3533 168.797Z" fill="white"/>
<path d="M47.3103 175.972C43.4149 174.857 38.6478 173.221 38.6478 173.221C38.6478 173.221 43.5187 163.034 34.3331 157.842C34.3331 157.842 35.7986 153.245 36.3503 149.277C36.7962 146.028 35.3395 136.648 28.1006 133.348C28.2948 133.366 28.5001 133.389 28.7031 133.421C36.9551 134.716 43.6423 144.296 46.9064 156.42C48.9766 155.276 50.1617 154.567 51.7993 156.895C54.1961 160.304 53.1147 165.456 50.7311 169.395C50.2897 170.123 49.8219 170.642 49.3385 170.985C49.1443 172.801 48.4955 174.56 47.3147 175.972H47.3103Z" fill="#DFDFEA"/>
<path d="M86.5024 212.639C86.5024 212.639 53.9051 216.663 38.6746 203.018C23.4463 189.376 18.8535 186.795 18.8535 186.795L59.0562 173.805C59.0562 173.805 66.4165 177.988 75.666 179.333C84.9156 180.678 103.302 177.658 103.302 177.658L109.19 178.045L100.704 209.12L86.5024 212.636V212.639Z" fill="#FFFFFE"/>
<path d="M38.2221 194.761C53.4504 208.406 81.38 206.986 81.38 206.986L95.582 203.467L108.109 182.008L100.704 209.121L86.5024 212.638C86.5024 212.638 53.9051 216.662 38.6746 203.018C23.4463 189.373 18.8535 186.794 18.8535 186.794L26.2227 184.413C29.169 186.823 33.0909 190.162 38.2221 194.759V194.761Z" fill="#DFDFEA"/>
<path d="M53.4139 155.739L55.6253 158.08L64.6586 167.631C66.6382 169.72 65.9386 173.375 63.1247 175.577C59.4324 178.47 54.0672 182.558 48.1171 186.741C47.1504 187.413 46.1705 188.095 45.1774 188.772C40.5868 191.91 35.7601 195.002 31.1497 197.587C28.541 199.049 25.566 198.662 24.1491 196.696C21.6221 193.186 17.8879 187.066 16.098 179.621C15.5926 177.506 16.6365 175.061 18.6471 173.494C18.9075 173.289 19.1878 173.101 19.4835 172.929C22.4034 171.216 26.749 168.591 32.1473 165.093C32.9109 164.598 33.6966 164.092 34.5043 163.562C38.0002 161.259 41.8669 158.636 46.0337 155.695C46.7289 155.206 47.466 154.854 48.2098 154.645C50.1718 154.064 52.1692 154.428 53.4139 155.741V155.739Z" fill="#5E9AFC"/>
<path d="M53.4138 155.739L55.6252 158.08L64.6584 167.631C66.6381 169.721 65.9385 173.375 63.1245 175.578C59.4322 178.471 54.067 182.558 48.117 186.741C47.6116 187.197 36.8701 172.448 34.7139 163.918L35.3451 163.318C39.1499 160.856 43.4801 157.956 48.2097 154.643C50.1717 154.062 52.169 154.426 53.4138 155.739Z" fill="#467EF9"/>
<g opacity="0.45">
<path d="M29.8616 193.456C27.3346 189.946 23.6004 183.825 21.8105 176.38C21.3051 174.266 22.349 171.82 24.3596 170.254C24.62 170.049 24.9003 169.86 25.196 169.689C28.1159 167.976 32.4615 165.35 37.8598 161.853C38.6234 161.357 39.4091 160.851 40.2169 160.322C42.8829 158.565 45.7653 156.621 48.8308 154.494C48.6233 154.534 48.4181 154.58 48.2106 154.641C47.4669 154.852 46.7275 155.203 46.0345 155.691C41.8677 158.632 38.001 161.255 34.5052 163.558C33.6974 164.085 32.9117 164.593 32.1481 165.089C26.7498 168.586 22.4042 171.21 19.4843 172.925C19.1864 173.096 18.9083 173.285 18.6479 173.49C16.6395 175.056 15.5934 177.502 16.0988 179.616C17.8909 187.061 21.6251 193.182 24.1499 196.692C25.5668 198.66 28.5419 199.045 31.1505 197.583C32.7087 196.708 34.2933 195.773 35.8845 194.801C33.5451 195.685 31.1042 195.177 29.8638 193.451L29.8616 193.456Z" fill="white"/>
</g>
<path d="M81.5807 260.787C81.5277 262.243 81.488 263.716 81.4682 265.205C81.3357 273.934 81.797 283.224 83.0726 292.971L79.9078 295.716C79.2987 296.241 78.7778 296.837 78.3607 297.496C77.5552 298.757 77.1182 300.217 77.1182 301.713C77.1182 301.918 77.1248 302.117 77.1446 302.322C77.4735 306.568 81.1923 309.844 85.6637 309.844H122.203C126.921 309.844 130.748 306.206 130.748 301.717L131.326 295.13V295.117L132.69 279.5L133.262 272.93C113.474 272.146 95.5157 267.69 81.5851 260.785L81.5807 260.787Z" fill="#5D5D89"/>
<path d="M81.5807 260.787C81.5277 262.243 81.488 263.716 81.4682 265.205C81.3357 273.934 81.797 283.224 83.0726 292.971L79.9078 295.716C79.2987 296.241 78.7778 296.837 78.3607 297.496C77.5552 298.757 77.1182 300.217 77.1182 301.713C77.1182 301.918 77.1248 302.117 77.1446 302.322C77.4735 306.568 81.1923 309.844 85.6637 309.844H122.203C126.921 309.844 130.748 306.206 130.748 301.717L131.326 295.13V295.117L132.69 279.5L133.262 272.93C113.474 272.146 95.5157 267.69 81.5851 260.785L81.5807 260.787Z" fill="white"/>
<path d="M93.717 309.844H85.6615C81.1901 309.844 77.4713 306.569 77.1424 302.322C77.1226 302.117 77.1182 301.919 77.1182 301.714C77.1182 300.218 77.5552 298.758 78.3607 297.497C78.6278 299.626 79.9652 302.77 85.5533 302.77H120.464C123.138 302.77 125.778 301.985 127.875 300.406C129.426 299.237 130.85 297.54 131.322 295.133L130.744 301.72C130.744 306.209 126.919 309.846 122.198 309.846H93.7148" fill="#5E9AFC"/>
<path d="M191.263 295.719L188.098 292.975C189.374 283.227 189.838 273.935 189.703 265.208C189.699 264.884 189.694 264.564 189.687 264.244C175.512 269.798 158.216 273.061 139.547 273.061C139.006 273.061 138.465 273.057 137.927 273.053L138.487 279.506L140.429 301.722C140.429 306.211 144.254 309.849 148.975 309.849H185.514C187.748 309.849 189.796 309.029 191.325 307.684C192.861 306.333 193.87 304.45 194.033 302.327C194.229 299.836 193.208 297.399 191.268 295.721L191.263 295.719Z" fill="#5D5D89"/>
<path d="M191.263 295.719L188.098 292.975C189.374 283.227 189.838 273.935 189.703 265.208C189.699 264.884 189.694 264.564 189.687 264.244C175.512 269.798 158.216 273.061 139.547 273.061C139.006 273.061 138.465 273.057 137.927 273.053L138.487 279.506L140.429 301.722C140.429 306.211 144.254 309.849 148.975 309.849H185.514C187.748 309.849 189.796 309.029 191.325 307.684C192.861 306.333 193.87 304.45 194.033 302.327C194.229 299.836 193.208 297.399 191.268 295.721L191.263 295.719Z" fill="white"/>
<path d="M139.85 295.131L140.428 301.718C140.428 306.207 144.253 309.844 148.973 309.844H185.512C189.984 309.844 193.703 306.569 194.031 302.322C194.051 302.117 194.056 301.919 194.056 301.714C194.056 300.218 193.619 298.758 192.813 297.497C192.546 299.626 191.209 302.77 185.621 302.77H150.71C148.035 302.77 145.396 301.986 143.299 300.406C141.748 299.237 140.324 297.541 139.852 295.133L139.85 295.131Z" fill="#5E9AFC"/>
<path d="M220.151 237.127C197.538 239.053 189.41 246.686 187.428 249.027C186.024 250.686 185.292 252.372 185.468 253.541C185.923 256.568 188.324 263.182 194.153 266.537C198.556 269.073 204.115 269.24 210.677 267.037C218.172 264.521 221.996 258.607 222.049 249.464C222.078 244.314 220.864 239.497 220.153 237.127H220.151Z" fill="#000072"/>
<path d="M183.274 253.836C184.124 259.482 190.919 275.915 211.42 269.029C211.705 268.933 211.987 268.832 212.258 268.732C231.629 261.386 221.749 234.883 221.749 234.883C202.25 236.245 191.138 241.851 186.253 247.088C183.912 249.59 183.003 252.008 183.274 253.838V253.836Z" fill="white"/>
<path d="M183.274 253.836C184.124 259.482 190.919 275.915 211.42 269.028C211.705 268.932 211.987 268.832 212.258 268.731C202.225 270.44 200.365 264.046 201.047 261.272C201.89 257.879 204.015 253.464 204.015 253.464C191.305 254.857 198.282 244.113 198.282 244.113C198.282 244.113 191.665 245.655 186.253 247.086C183.912 249.587 183.003 252.006 183.274 253.836Z" fill="#DFDFEA"/>
<path d="M146.547 171.595L150.321 179.264L175.929 231.278L182.36 229.013L201.596 222.235L214.538 217.675C214.538 217.675 213.45 215.765 211.43 212.684C204.816 202.606 188.195 179.973 166.761 170.244L146.547 171.598V171.595Z" fill="white"/>
<path d="M150.321 179.26L175.929 231.274L182.36 229.009L181.928 225.896C181.597 223.488 183.197 221.229 185.655 220.593C190.672 219.303 195.139 218.014 198.975 216.826L197.136 216.975C197.136 216.975 174.49 181.163 157.45 178.501C155.009 178.118 152.61 178.415 150.323 179.26H150.321Z" fill="#DFDFEA"/>
<path d="M172.767 227.806L173.235 230.917L175.137 243.616C175.552 246.398 178.953 248.241 182.542 247.617C187.256 246.799 194.007 245.538 201.215 243.913C202.38 243.643 203.559 243.371 204.746 243.089C210.235 241.777 215.839 240.265 220.89 238.583C223.749 237.631 225.353 235.224 224.676 232.931C223.466 228.839 220.926 222.192 216.066 216.101C214.682 214.373 212.036 213.557 209.478 214.007C209.145 214.063 208.814 214.145 208.485 214.251C205.223 215.266 200.308 216.73 194.009 218.397C193.118 218.634 192.202 218.876 191.255 219.123C187.146 220.177 182.537 221.294 177.483 222.424C176.642 222.612 175.883 222.924 175.234 223.328C173.502 224.376 172.511 226.062 172.769 227.808L172.767 227.806Z" fill="#5E9AFC"/>
<path d="M172.765 227.808L173.233 230.919L175.136 243.618C175.55 246.4 178.951 248.243 182.54 247.619C187.254 246.801 194.005 245.54 201.213 243.915C201.906 243.839 196.908 226.557 191.406 219.506L190.514 219.579C186.078 220.757 180.949 222.031 175.23 223.33C173.498 224.378 172.507 226.064 172.765 227.81V227.808Z" fill="#467EF9"/>
<g opacity="0.45">
<path d="M218.381 234.991C217.171 230.9 214.631 224.252 209.771 218.161C208.388 216.433 205.741 215.617 203.183 216.067C202.85 216.124 202.519 216.205 202.19 216.312C198.928 217.326 194.013 218.791 187.715 220.458C186.823 220.694 185.907 220.937 184.96 221.184C181.826 221.987 178.401 222.828 174.711 223.683C174.876 223.56 175.046 223.438 175.227 223.328C175.876 222.924 176.635 222.614 177.476 222.424C182.533 221.294 187.139 220.175 191.248 219.123C192.195 218.876 193.108 218.634 194.002 218.397C200.301 216.73 205.216 215.266 208.478 214.251C208.807 214.147 209.138 214.065 209.471 214.007C212.029 213.557 214.675 214.373 216.059 216.101C220.919 222.192 223.459 228.837 224.669 232.931C225.346 235.226 223.744 237.631 220.884 238.583C219.175 239.152 217.401 239.698 215.591 240.227C217.811 239.1 218.97 237.002 218.376 234.991H218.381Z" fill="white"/>
</g>
<path d="M172.318 190.749L167.01 179.445H104.402L98.7434 190.749C98.7434 190.749 85.636 215.246 82.6058 253.21C82.405 255.697 82.2505 258.24 82.1445 260.84C95.9206 268.187 113.588 270.977 133.148 271.812L133.173 271.525L135.534 271.454L137.88 271.515L137.915 271.925C138.449 271.931 138.913 273.893 139.449 273.893C157.913 273.893 175.019 270.419 189.038 264.505C188.952 260.623 188.754 256.854 188.46 253.21C185.43 215.248 172.322 190.749 172.322 190.749H172.318Z" fill="white"/>
<path d="M188.339 266.626C170.925 278.584 146.794 279.85 138.547 279.908L137.951 273.043L135.649 272.982L133.259 272.93L132.687 279.5C124.439 279.442 100.37 278.586 82.9545 266.628C82.0628 266.017 81.5332 265.027 81.5574 263.984C81.6413 260.133 81.8444 256.395 82.1379 252.782C82.1379 252.782 90.2376 255.719 97.9334 258.284L118.213 239.974C115.13 237.573 112.599 234.546 110.842 231.101C109.079 227.65 108.094 223.778 108.094 219.688C108.094 216.956 108.531 214.319 109.35 211.84H109.357C109.357 211.84 117.256 219.688 135.644 219.688C154.033 219.688 161.932 211.84 161.932 211.84H161.938C162.014 212.064 162.084 212.285 162.148 212.516C162.206 212.702 162.263 212.896 162.314 213.089C162.378 213.312 162.435 213.54 162.49 213.771C162.565 214.072 162.629 214.379 162.693 214.687C162.693 214.693 162.7 214.699 162.693 214.706C162.764 215.026 162.819 215.346 162.87 215.67C162.876 215.676 162.876 215.682 162.876 215.695C162.927 216.015 162.971 216.335 163.009 216.659C163.046 216.954 163.08 217.255 163.097 217.559C163.128 217.854 163.148 218.151 163.161 218.446C163.168 218.561 163.174 218.676 163.174 218.789C163.188 219.084 163.194 219.385 163.194 219.688C163.194 223.778 162.21 227.652 160.447 231.101C160.338 231.318 160.224 231.53 160.111 231.741C159.877 232.17 159.634 232.586 159.381 232.996C159.248 233.201 159.12 233.406 158.988 233.605C158.588 234.207 158.162 234.793 157.712 235.366C156.368 237.073 154.808 238.623 153.075 239.974L173.355 258.284C181.051 255.719 189.151 252.782 189.151 252.782C189.232 253.813 189.31 254.851 189.378 255.901C189.409 256.426 189.449 256.957 189.473 257.487C189.499 257.878 189.517 258.271 189.537 258.668C189.568 259.248 189.594 259.834 189.619 260.417C189.663 261.582 189.7 262.764 189.727 263.959C189.727 263.965 189.727 263.969 189.727 263.975C189.751 265.023 189.226 266.013 188.332 266.628L188.339 266.626Z" fill="#467EF9"/>
<path d="M135.647 234.715C145.805 234.715 154.04 226.884 154.04 217.224C154.04 207.564 145.805 199.732 135.647 199.732C125.489 199.732 117.254 207.564 117.254 217.224C117.254 226.884 125.489 234.715 135.647 234.715Z" fill="#00B7FF"/>
<g opacity="0.45">
<path d="M135.649 228.003C141.91 228.003 146.986 223.177 146.986 217.222C146.986 211.268 141.91 206.441 135.649 206.441C129.387 206.441 124.312 211.268 124.312 217.222C124.312 223.177 129.387 228.003 135.649 228.003Z" fill="white"/>
</g>
<path d="M166.842 181.924C145.841 185.383 124.453 185.383 103.453 181.924C99.9925 181.355 97.6111 177.311 98.1386 173.006C98.1452 172.954 98.1518 172.902 98.1585 172.85C98.6771 168.622 101.732 165.715 105.031 166.256C124.987 169.542 145.309 169.542 165.264 166.256C168.564 165.715 171.618 168.622 172.137 172.85C172.144 172.902 172.15 172.954 172.157 173.006C172.684 177.311 170.303 181.355 166.842 181.924Z" fill="#5E9AFC"/>
<path d="M11.7496 48.3655L23.1929 88.2138C23.9874 90.9833 22.2638 93.8386 19.3417 94.5937C16.4196 95.3467 13.4071 93.7131 12.6104 90.9435C12.553 90.7406 12.5022 90.5064 12.4713 90.3035L6.38883 49.4093C5.98936 46.2026 10.7808 45.2655 11.7474 48.3655H11.7496Z" fill="#467EF9"/>
<path d="M36.8253 130.678C33.0182 131.061 29.2001 131.237 25.371 131.206C12.5704 131.105 1.9084 121.937 0.559925 109.872C0.156045 106.263 -0.029343 102.644 0.00376193 99.0152C0.109698 86.8829 9.78297 76.7775 22.5129 75.4994C26.32 75.1167 30.1381 74.9409 33.9673 74.9723C46.7678 75.0727 57.4298 84.241 58.7783 96.3063C59.1822 99.9146 59.3676 103.533 59.3345 107.163C59.2285 119.295 49.5553 129.4 36.8253 130.678Z" fill="white"/>
<path d="M54.4375 88.1746C54.8392 91.7808 55.0246 95.4038 54.9937 99.0288C54.8878 111.163 45.2189 121.267 32.4823 122.547C28.6775 122.927 24.8616 123.103 21.0302 123.074C13.0718 123.011 5.94319 119.44 1.35484 113.849C0.98186 112.569 0.710399 111.239 0.55591 109.875C0.189548 106.555 0.00636712 103.229 0.00195312 99.899C4.02972 102.535 8.88953 104.089 14.1113 104.129C17.9426 104.158 21.7585 103.982 25.57 103.599C38.2978 102.321 47.9666 92.2159 48.0748 80.0836C48.0792 79.7929 48.0682 79.4958 48.0726 79.2051C50.1825 80.5919 52.0584 82.2716 53.6364 84.194C54.0116 85.4804 54.2808 86.8045 54.4375 88.1746Z" fill="#DFDFEA"/>
<path d="M230.768 20.5205L230.808 61.8184C230.81 64.6883 233.268 67.0123 236.296 67.0102C239.324 67.0081 241.776 64.6779 241.774 61.808C241.774 61.5967 241.756 61.3603 241.73 61.1574L236.226 20.19C235.718 16.9979 230.838 17.2908 230.766 20.5205H230.768Z" fill="#467EF9"/>
<path d="M229.463 106.189C233.242 105.607 236.974 104.823 240.66 103.838C252.979 100.543 260.717 89.0362 258.662 77.0608C258.048 73.4797 257.221 69.9425 256.181 66.4493C252.705 54.773 240.565 47.4392 227.93 49.3866C224.151 49.9682 220.419 50.7526 216.733 51.7378C204.414 55.0323 196.676 66.5392 198.731 78.5146C199.345 82.0957 200.172 85.6329 201.212 89.1262C204.688 100.802 216.828 108.136 229.463 106.189Z" fill="white"/>
<path d="M200.658 69.5852C201.274 73.1642 202.101 76.7056 203.138 80.1947C206.614 91.8731 218.751 99.2048 231.392 97.2594C235.169 96.6758 238.898 95.8935 242.586 94.9083C250.247 92.8604 256.131 87.6352 259 81.0963C259.004 79.768 258.896 78.4167 258.666 77.0612C258.097 73.7667 257.349 70.514 256.426 67.301C253.275 70.8507 249.018 73.5638 243.992 74.9046C240.304 75.8898 236.574 76.6721 232.792 77.2558C220.157 79.2011 208.023 71.8694 204.544 60.1911C204.46 59.9108 204.388 59.6221 204.302 59.3418C202.653 61.2077 201.309 63.2952 200.322 65.5439C200.32 66.8785 200.426 68.2235 200.658 69.5831V69.5852Z" fill="#DFDFEA"/>
<path d="M141.09 174.576C198.234 167.311 235.782 149.778 242.601 112.597C244.093 104.464 244.018 96.3205 242.992 88.5642C237.382 46.1743 203.754 11.7123 159.664 2.82229C135.489 -2.05155 116.509 0.866478 116.509 0.866478C116.509 0.866478 97.3873 2.79091 75.4211 13.5322C35.3619 33.1175 12.504 74.7605 18.8778 117.052C20.0431 124.792 22.2369 132.665 25.9358 140.139C42.8524 174.304 83.9467 181.841 141.09 174.576Z" fill="white"/>
<path d="M237.865 67.9375C237.675 69.8117 237.423 71.6881 237.075 73.5707C230.26 110.75 192.712 128.285 135.566 135.55C78.4203 142.815 37.326 135.276 20.4138 101.113C19.5553 99.3853 18.7895 97.6365 18.0854 95.8773C17.5624 102.847 17.8029 109.945 18.8733 117.052C20.0386 124.796 22.2346 132.663 25.9357 140.141C42.848 174.304 83.9423 181.843 141.088 174.578C198.234 167.314 235.779 149.778 242.597 112.599C244.089 104.462 244.018 96.325 242.992 88.5624C242.047 81.4399 240.308 74.5329 237.865 67.9396V67.9375ZM175.241 153.711C172.924 158.093 154.167 163.264 139.748 165.096C125.332 166.929 105.8 166.627 102.346 162.977C100.623 161.151 100.784 159.168 101.378 157.639C101.951 156.16 103.106 154.953 104.527 154.133C120.74 144.779 136.61 142.917 136.61 142.917C136.61 142.917 152.436 140.752 170.677 145.724C172.275 146.159 173.725 147.036 174.69 148.32C175.687 149.646 176.396 151.521 175.239 153.711H175.241Z" fill="#DFDFEA"/>
<path d="M233.907 92.673C234.982 104.075 233.086 114.057 228.134 120.165C215.819 135.349 189.26 143.288 178.64 145.942C178.388 146.011 178.145 146.066 177.916 146.124C175.645 146.681 173.266 146.595 171.05 145.869C165.481 144.06 152.747 140.867 136.607 142.92C128.918 143.896 122.31 145.829 116.974 147.921C111.092 150.228 106.753 152.726 104.202 154.368C102.266 155.621 99.9954 156.299 97.6494 156.33C93.4274 156.388 86.1862 156.288 77.9718 155.368C76.2945 155.182 74.5796 154.956 72.8317 154.686C63.858 153.328 54.2664 150.902 46.4404 146.618C44.8801 145.766 43.3903 144.834 41.9889 143.829C33.0461 137.401 27.6787 122.403 27.4404 105.109C27.1866 87.1716 32.4591 66.7684 44.9683 50.9107C53.0327 40.6882 69.2255 40.1903 77.6672 50.1325C77.8747 50.3731 78.0755 50.6262 78.2786 50.8793C79.0797 51.8812 79.8985 52.8267 80.7658 53.7115C82.7389 55.7657 84.8709 57.5207 87.2014 58.9786C87.2522 59.0142 87.3008 59.0456 87.3493 59.0686C87.4045 59.1042 87.4552 59.1334 87.4906 59.1606C87.5193 59.1816 87.5546 59.2004 87.5811 59.215C87.6031 59.2297 87.6097 59.2359 87.6097 59.2359C96.5591 64.6683 108.42 65.9443 125.407 63.7855C149.066 60.7776 161.273 53.8266 167.282 39.5649C167.406 39.2699 167.532 38.975 167.664 38.6905C173.043 26.9912 188.803 23.4289 199.423 31.2752C200.802 32.2897 202.135 33.3502 203.431 34.4547C209.039 39.2072 213.899 44.6918 217.993 50.5655C227.293 63.911 232.649 79.2772 233.905 92.6751L233.907 92.673Z" fill="#5E9AFC"/>
<path d="M125.113 61.6773C125.113 61.6773 92.7147 67.7477 79.3027 52.1012C79.3027 52.1012 83.5402 75.3659 126.283 69.9336C169.024 64.4991 166.645 40.998 166.645 40.998C158.057 59.4412 125.116 61.6773 125.116 61.6773H125.113Z" fill="#92BEFE"/>
<path d="M99.3838 158.308C98.8233 158.379 98.2561 158.419 97.6867 158.427C86.1507 158.576 57.5016 157.614 40.649 145.5C31.181 138.696 25.2662 122.848 25.2133 104.141C25.1559 84.0625 31.7107 64.199 43.1937 49.6444C47.5084 44.1765 54.1249 40.9698 61.3462 40.8464C68.4241 40.7272 75.0031 43.6285 79.4017 48.8056C79.6224 49.065 79.8409 49.3328 80.0594 49.6047C89.2096 61.0948 102.264 64.5944 125.117 61.6889C147.971 58.7834 159.591 52.1462 165.223 38.7777C165.358 38.4597 165.494 38.148 165.636 37.8426C168.439 31.7493 173.978 27.3064 180.84 25.6559C187.84 23.97 195.112 25.4112 200.795 29.6094C215.92 40.7816 227.765 58.3065 233.291 77.691C238.44 95.7493 237.14 112.513 229.899 121.443C217.01 137.336 189.641 145.421 178.472 148.159C175.777 148.818 172.965 148.715 170.334 147.86C164.473 145.952 152.336 143.044 136.907 145.006C121.478 146.968 110.578 152.805 105.453 156.107C103.626 157.285 101.553 158.034 99.386 158.31L99.3838 158.308ZM59.2165 45.2141C54.2507 45.8458 49.7926 48.3099 46.7491 52.165C35.8289 66.0042 29.5986 84.9452 29.6537 104.131C29.7045 121.551 34.9439 136.118 43.3327 142.147C59.5277 153.788 88.9845 154.329 97.6271 154.219C99.5339 154.196 101.377 153.643 102.955 152.627C108.402 149.115 119.982 142.91 136.316 140.833C152.65 138.756 165.543 141.85 171.776 143.877C173.581 144.465 175.512 144.536 177.359 144.082C185.726 142.03 213.991 134.15 226.377 118.876C232.792 110.965 233.799 95.6049 229.003 78.787C223.722 60.2665 212.444 43.5511 198.063 32.927C193.47 29.5341 187.589 28.369 181.93 29.7349C176.41 31.0653 171.952 34.6338 169.703 39.5244C169.58 39.7901 169.46 40.062 169.346 40.3381C163.029 55.3278 150.388 62.7222 125.707 65.8599C101.026 68.9975 86.7753 65.0211 76.5149 52.1378C76.3251 51.8994 76.1353 51.6672 75.9433 51.4413C72.4121 47.2828 67.1219 44.9547 61.4279 45.0509C60.6841 45.0634 59.947 45.1157 59.2209 45.2099L59.2165 45.2141Z" fill="#1C35B1"/>
<path d="M186.031 115.438L185.68 115.502C175.036 117.418 164.436 111.12 161.551 101.163C159.644 94.5805 158.258 87.8052 157.431 81.0237C156.179 70.7656 163.531 61.1685 174.162 59.1751L174.506 59.1123C185.157 57.1963 195.757 63.4946 198.642 73.4515C200.549 80.0343 201.935 86.8095 202.762 93.5911C204.014 103.849 196.662 113.446 186.031 115.44V115.438ZM175.457 63.8356L175.146 63.892C167.093 65.4023 161.525 72.6838 162.474 80.4694C163.27 87.0083 164.608 93.5409 166.446 99.8873C168.636 107.445 176.671 112.227 184.738 110.775L185.042 110.719C193.102 109.208 198.671 101.927 197.722 94.1412C196.925 87.6023 195.587 81.0697 193.749 74.7233C191.56 67.1657 183.524 62.3839 175.455 63.8356H175.457Z" fill="#333333"/>
<path d="M185.213 113.142C185.324 113.123 185.432 113.102 185.542 113.081C194.955 111.316 201.347 102.903 200.245 93.8682C199.429 87.1766 198.08 80.5833 196.2 74.0883C193.66 65.3196 184.412 59.7785 174.986 61.4749C174.876 61.4938 174.768 61.5147 174.657 61.5356C165.244 63.3011 158.853 71.7142 159.954 80.7485C160.771 87.4401 162.119 94.0334 164 100.528C166.54 109.297 175.787 114.838 185.213 113.142Z" fill="#333333"/>
<g opacity="0.45">
<path d="M184.92 80.7784C184.955 80.7722 184.992 80.7659 185.028 80.7575C188.159 80.1697 190.258 77.3396 189.885 74.3358C189.618 72.1645 189.179 70.0246 188.572 67.914C187.731 64.996 184.668 63.1134 181.534 63.6782C181.499 63.6844 181.461 63.6907 181.426 63.6991C178.294 64.2869 176.195 67.117 176.568 70.1208C176.835 72.2921 177.274 74.432 177.881 76.5426C178.722 79.4606 181.786 81.3432 184.92 80.7784Z" fill="white"/>
</g>
<path d="M82.5335 131.153L82.1826 131.22C71.5493 133.196 60.9093 126.957 57.963 117.016C56.0142 110.444 54.5863 103.677 53.7167 96.8998C52.4013 86.6501 59.6911 77.0112 70.3111 74.9592L70.6554 74.8943H70.6576C81.2932 72.9176 91.9331 79.1553 94.8794 89.0975C96.8282 95.6699 98.2561 102.437 99.1257 109.214C100.441 119.464 93.1514 129.103 82.5313 131.155L82.5335 131.153ZM71.3264 79.6699C63.2818 81.2261 57.7599 88.539 58.7575 96.3183C59.5962 102.853 60.9733 109.377 62.8515 115.715C65.0872 123.26 73.1515 127.996 81.2115 126.498L81.5161 126.44C89.5672 124.884 95.0891 117.571 94.0915 109.791C93.2529 103.257 91.8757 96.7325 89.9976 90.3944C87.7619 82.8515 79.6975 78.1136 71.6397 79.6092L71.3264 79.6678V79.6699Z" fill="#333333"/>
<path d="M82.0304 128.792C81.9222 128.813 81.8119 128.834 81.7037 128.855C72.2887 130.603 63.006 125.117 60.4128 116.36C58.4905 109.876 57.1001 103.291 56.2438 96.6035C55.0851 87.5754 61.4258 79.1267 70.8277 77.309C70.9358 77.2881 71.0461 77.2671 71.1543 77.2462C80.5693 75.4975 89.852 80.9842 92.4452 89.7404C94.3675 96.2249 95.7579 102.81 96.6142 109.497C97.7729 118.525 91.4322 126.974 82.0304 128.792Z" fill="#333333"/>
<g opacity="0.45">
<path d="M78.8111 98.0773C78.8464 98.071 78.8839 98.0647 78.9193 98.0563C82.051 97.4685 84.1498 94.6384 83.7769 91.6346C83.5098 89.4633 83.0706 87.3234 82.4637 85.2128C81.6228 82.2948 78.5595 80.4122 75.4256 80.977C75.3903 80.9833 75.3528 80.9895 75.3174 80.9979C72.1857 81.5857 70.0869 84.4159 70.4598 87.4197C70.7269 89.5909 71.1661 91.7308 71.773 93.8414C72.6139 96.7594 75.6772 98.642 78.8111 98.0773Z" fill="white"/>
</g>
</svg>
