<svg width="1082" height="181" viewBox="0 0 1082 181" fill="none" xmlns="http://www.w3.org/2000/svg">
<path d="M345.742 142.487H322.496L292.953 79.0389C292.56 78.1112 291.773 77.7174 290.986 77.7174C290.199 77.7174 289.411 78.1112 289.018 79.0389L259.344 142.487H236.089L276.144 57.4489C278.899 51.7517 284.549 48.041 290.977 48.041C297.405 48.041 303.055 51.7517 305.687 57.4489L345.742 142.487Z" fill="white"/>
<path d="M354.025 142.487V48.041H374.639V142.487H354.025Z" fill="white"/>
<path d="M536 47.7617L495.945 132.8C493.321 138.497 487.54 142.208 481.235 142.208C474.929 142.208 469.157 138.497 466.393 132.8L426.338 47.7617H449.584L479.258 111.21C479.652 112.007 480.439 112.54 481.226 112.54C482.013 112.54 482.8 112.007 483.194 111.21L512.737 47.7617H535.983H536Z" fill="white"/>
<path d="M544.02 142.208V47.7617H564.634V142.208H544.02Z" fill="white"/>
<path d="M652.493 121.697L659.464 142.219H609.823C592.498 142.219 578.321 127.735 578.321 109.908V80.0569C578.321 62.23 592.498 47.7988 609.823 47.7988H659.464L652.493 68.3211H609.823C603.763 68.3211 598.944 73.327 598.944 79.3655V85.404H642.235V105.147H598.944V110.6C598.944 116.691 603.763 121.697 609.823 121.697H652.493Z" fill="white"/>
<path d="M755.062 48.041L748.101 68.5195H718.952V142.216H698.338V68.5195H662.358L669.189 48.041H755.071H755.062Z" fill="white"/>
<path d="M848.038 47.2119V121.39C848.038 132.644 838.977 141.921 827.687 141.921C819.544 141.921 812.189 137.02 809.041 129.467L784.745 72.1099C784.352 71.3135 783.565 70.9197 782.777 70.9197C781.859 70.9197 780.81 71.5848 780.81 72.9063V142.21H761.508V64.5574C761.508 53.4342 770.437 47.4657 781.466 47.4657C789.477 47.4657 796.569 49.0584 799.849 56.3397L824.8 113.294C825.194 114.222 825.981 114.625 826.637 114.625C827.687 114.625 828.736 113.828 828.736 112.507V47.2031H848.038V47.2119Z" fill="white"/>
<path d="M962.955 142.208H939.709L910.167 78.7596C909.773 77.8319 908.986 77.4381 908.199 77.4381C907.412 77.4381 906.625 77.8319 906.231 78.7596L876.557 142.208H853.311L893.366 57.1696C896.121 51.4724 901.771 47.7617 908.199 47.7617C914.627 47.7617 920.277 51.4724 922.909 57.1696L962.964 142.208H962.955Z" fill="white"/>
<path d="M1081.02 67.2396V142.214H1061.72V77.8377C1061.72 76.5074 1060.67 75.7198 1059.62 75.7198C1058.97 75.7198 1058.31 75.9824 1057.92 76.7788L1037.17 116.651C1034.94 120.886 1030.6 123.538 1026.01 123.538C1021.42 123.538 1016.95 120.886 1014.72 116.651L993.977 76.7788C993.583 75.9824 992.928 75.7198 992.272 75.7198C991.222 75.7198 990.173 76.5162 990.173 77.8377V142.214H970.871V67.2396C970.871 55.9852 979.931 46.8398 991.091 46.8398C998.971 46.8398 1006.06 51.3381 1009.47 58.3656L1024.05 89.2321C1024.45 90.0285 1025.23 90.4223 1026.02 90.4223C1026.68 90.4223 1027.46 90.0285 1027.86 89.2321L1042.44 58.3656C1045.85 51.3469 1052.94 46.8398 1060.82 46.8398C1071.98 46.8398 1081.04 55.9764 1081.04 67.2396H1081.02Z" fill="white"/>
<path d="M80.36 151.236C80.36 151.236 66.3027 181.009 66.3068 181.001H104.494L97.0161 165.191L90.5399 151.48C90.2626 150.904 89.8861 150.387 89.4309 149.935C88.4005 148.908 86.9728 148.283 85.392 148.283C83.8154 148.283 82.3794 148.908 81.3532 149.935C80.9683 150.316 80.629 150.755 80.3641 151.236H80.36Z" fill="white"/>
<path d="M94.4277 148.325L99.1825 158.388L109.871 180.985H142.364L129.946 154.756L119.195 132.006C118.731 131.062 118.115 130.209 117.341 129.443C115.64 127.737 113.294 126.697 110.637 126.697C108.042 126.697 105.663 127.732 103.933 129.443C103.317 130.085 102.758 130.813 102.294 131.608C102.294 131.608 98.7438 139.141 94.4195 148.321L94.4277 148.325Z" fill="white"/>
<path d="M180.731 179.765C180.416 180.464 179.68 180.999 178.765 180.999H149.67C149.045 180.999 148.461 180.638 148.172 180.104C148.126 179.997 148.081 179.893 148.014 179.765C147.994 179.723 147.969 179.657 147.923 179.595C144.104 171.814 116.324 115.054 116.304 115.054C115.699 114.011 114.942 113.054 114.069 112.226C111.743 109.994 108.503 108.632 104.953 108.632C101.402 108.632 98.1578 109.994 95.8363 112.226C94.81 113.203 93.9576 114.33 93.3327 115.584L78.7167 145.391L61.9324 179.595L61.8413 179.765L61.6841 180.104C61.4399 180.634 60.8564 180.999 60.2109 180.999H32.4107C31.5831 180.999 30.9582 180.448 30.801 179.765C30.7099 179.446 30.7554 179.106 30.9127 178.767L51.8518 136.036L77.5291 83.6993L77.7319 83.2521C77.6201 83.2728 70.668 90.478 49.4185 82.5523H49.373C47.2957 81.8732 42.5368 79.6826 42.0899 79.4052C40.7698 78.5356 40.4139 76.9372 41.0636 75.6866C41.1753 75.4962 41.2871 75.3057 41.465 75.1566C43.1616 72.7135 45.1314 70.436 47.2957 68.3738C55.8782 60.212 67.7423 55.1518 80.8603 55.1518C81.7997 55.1518 82.739 55.1725 83.6536 55.2388C83.1611 55.0897 65.2387 53.1352 57.5956 50.9032C42.8472 46.5014 29.6174 38.7869 18.912 28.6458C15.6511 25.5401 5.70301 11.5976 0.228226 2.32606C-0.644926 0.901578 1.16759 -0.651268 2.62009 0.284581C11.7158 6.25993 28.9884 14.5708 34.1073 17.0139C35.0467 17.4404 35.8288 18.1609 36.3627 19.0347C37.2358 20.5213 38.6428 22.9023 39.6235 24.3723C41.2995 26.8817 43.5548 29.623 46.5756 32.3022C49.5924 35.0021 53.3457 37.615 57.997 39.8263C58.0425 39.8263 58.088 39.847 58.1294 39.8677C59.8053 40.6337 61.324 38.613 60.0288 37.3583C59.5612 36.8903 59.135 36.4638 58.7791 36.0829C58.3984 35.6563 58.0425 35.234 57.6825 34.8075C54.1981 30.6417 51.4918 25.8796 49.7496 20.7118V20.6703C49.3689 19.6517 50.2627 18.5875 51.4049 18.6496C52.4104 18.7117 53.416 18.7572 54.4216 18.7572C56.3665 18.7572 58.2659 18.6289 60.1447 18.4177C60.9723 18.3307 61.7296 18.7986 61.953 19.5647C62.131 20.2438 62.3338 20.9271 62.5779 21.5648C62.9131 22.5627 63.269 23.5648 63.6497 24.5214C65.4374 28.9025 68.0279 33.0269 71.1811 36.6377C80.6782 47.4994 97.0157 47.1805 109.55 41.7601C126.177 34.5756 141.911 26.2399 156.994 16.3969C158.356 15.4818 159.742 14.5915 161.108 13.6556C163.967 11.7425 166.715 14.2312 166.851 17.0139C167.095 22.6249 167.989 29.7058 164.55 34.53C159.167 42.0541 148.548 60.3818 147.634 62.1044C141.062 74.3077 140.371 88.5939 145.78 101.261C155.211 123.349 175.612 166.845 180.71 178.237C180.954 178.767 180.933 179.301 180.731 179.769V179.765Z" fill="white"/>
</svg>
